<?xml version="1.0" encoding="utf-8"?>
<!-- Generator: Adobe Illustrator 24.2.1, SVG Export Plug-In . SVG Version: 6.00 Build 0)  -->
<svg version="1.1" id="Layer_1" xmlns="http://www.w3.org/2000/svg" xmlns:xlink="http://www.w3.org/1999/xlink" x="0px" y="0px"
	 viewBox="0 0 288 288" style="enable-background:new 0 0 288 288;" xml:space="preserve">
<style type="text/css">
	.st0{fill:#FFFFFF;}
</style>
<g>
	<path class="st0" d="M115,206.6c-0.3-15.2,0.6-29.7,2.7-44.2c0.5-3.1-0.2-5.7-2.8-7.7c-2.4-1.8-4.5-4-6.9-6
		c-1.5-1.3-1.7-2.5-0.9-4.3c2.2-4.4,4.2-8.9,6.2-13.4c1.2-2.7,2.3-2.8,4.2-0.7c6.3,7,12.9,13.9,19.1,21c2.1,2.4,2.8,1.8,4.1-0.6
		c4.1-7.5,4.2-7.5-3.1-12.2c-5.9-3.8-11.7-7.7-17.8-11.2c-2.7-1.6-3.2-3-2.2-6.1c1.5-4.6,4.1-6,8.6-6.3c8.8-0.6,17.6-2,26.5-2.8
		c3.6-0.3,5.9-1.7,6.6-5.3c0.4-1.8,2.5-3.8,1.3-5.1c-1.1-1.3-3.5,0.3-5.2,0.8c-9.3,2.4-18.5,4.9-27.8,7.3c-1.2,0.3-2.6,1.3-3.6,0.2
		c-1.2-1.3,0.2-2.6,0.7-3.8c0.9-2.3,2.1-4.4,3-6.7c1.3-3.1,2.5-6.1,7-4.8c1.6,0.5,2.8-1,3.9-2c22.5-20.8,44.9-41.6,67.4-62.5
		c2.1-2,4.4-3.9,6.4-5.9c1.6-1.6,2.7-1.4,4,0.4c4.3,5.8,8.6,11.7,13.1,17.4c1.7,2.2,0.6,3.5-0.9,5c-12.1,12.1-24.2,24.1-35.4,36.9
		c-27.5,31.4-44.2,67.7-49.6,109.1c-2.9,22.3-2.1,44.5,1.4,66.7c0.5,3.2-0.4,4.2-3.4,4.4c-6.3,0.5-12.6,1.1-18.8,1.9
		c-3.2,0.4-4.5-0.7-4.7-3.8c-0.7-9-1.7-17.9-2.2-26.9C115.2,225.6,114.7,215.8,115,206.6z"/>
	<path class="st0" d="M154.5,34.3c-0.1,2.6-1,4.5-2.9,6.2c-14.2,13.2-29.5,24.8-46.4,34.3c-0.7,0.4-1.4,0.9-2.1,1.3
		c-1.9,1.1-3.5,2.4-3.2,4.9c0.2,2.6,2.2,3.3,4.3,4c5,1.7,9.9,3.4,15,5c2.3,0.7,2.9,1.9,1.8,4.1c-6.9,14.8-13.8,29.7-20.6,44.6
		c-1,2.1-2.2,2.3-4.2,1.5c-8.6-3.5-17.1-6.9-24.8-12.3c-0.6-0.4-1.1-1.1-1.8-0.8c-1,0.5-0.5,1.4-0.4,2.2c0.7,4.1,1.6,8.3,2.3,12.4
		c0.3,1.8,1,2.6,2.7,1.3c2.1-1.7,4.2-1.3,6.5-0.2c3,1.5,6.2,2.8,9.3,4.1c2.3,1,2.3,2,0.4,3.4c-8.9,6.6-17.8,13.2-26.7,19.9
		c-2,1.5-3.4,0.9-4.7-0.8c-1.7-2.3-2.7-4.9-3.6-7.6c-4.1-12.4-6.3-25.1-7.8-38c-0.7-6-1.9-12-0.8-18.1c0.5-3,1.3-5.9,2.6-8.7
		c7-14.6,17.2-26,32.3-32.6C92.3,60,102.6,55,113,50.2c6.3-2.9,11.6-7.4,17.3-11.2c4.8-3.2,9.3-6.6,14.1-9.9c2-1.4,3.9-3.3,6.6-1.9
		C154,28.8,154.2,31.6,154.5,34.3z"/>
	<path class="st0" d="M75.6,47.3c0.3,11.1-8.9,20.7-20.2,20.9c-11,0.3-20.9-9-21.1-19.7c-0.2-12.3,8.4-21.7,20.2-21.9
		C66.2,26.4,75.3,35.4,75.6,47.3z"/>
	<path class="st0" d="M253.7,7.1c-0.8,5.3-2.8,10.1-6.8,13.9c-3.6,3.4-7.4,6.4-11.1,9.7c-1.8,1.6-3.1,1.7-4.5-0.5
		c-2.1-3.2-6.3-5.9-6.2-9.4c0-3.6,4.6-5.8,7.3-8.5c3.7-3.7,7-7.9,11.5-10.8c2.2-1.4,4.4-2.2,6.9-0.7C253.1,2.2,253.8,4.4,253.7,7.1z
		"/>
	<path class="st0" d="M116.1,288c-2.1-0.1-4,0.5-4.9-1.3c-0.9-1.7,0.4-3.1,1.2-4.5c0.1-0.2,0.3-0.4,0.4-0.6
		c2.4-5.5,6.6-7.4,12.5-7.4c5.3,0,10.7-0.8,16-1.5c3.3-0.4,3.4,1.1,2.6,3.4c-1.5,4.7-4.6,7.7-9.2,9.3
		C128.5,287.5,122,287.1,116.1,288z"/>
</g>
</svg>
