<?xml version="1.0" encoding="utf-8"?>
<!-- Generator: Adobe Illustrator 25.0.0, SVG Export Plug-In . SVG Version: 6.00 Build 0)  -->
<svg version="1.1" id="Layer_1" xmlns="http://www.w3.org/2000/svg" xmlns:xlink="http://www.w3.org/1999/xlink" x="0px" y="0px"
	 viewBox="0 0 288 288" style="enable-background:new 0 0 288 288;" xml:space="preserve">
<style type="text/css">
	.st0{fill:#FFFFFF;}
</style>
<path class="st0" d="M252.5,260c-0.1-8.7-0.1-17.3,0-26c0-2.9-1.1-4.1-4-4.5c-31.4-4.4-62.9-6.5-94.5-7.2
	c-17.7-0.4-35.5,0.4-53.2,1.4c-20.2,1.1-40.3,3.1-60.3,5.7c-3.6,0.5-4.6,2-4.6,5.3c0.1,8.2,0.1,16.5,0,24.8c0,3.4,1.1,4.6,4.7,4.1
	c34.4-4.7,68.9-7,102.2-7.2c10.3,0.2,19.3,0.3,28.2,0.6c25.9,0.9,51.6,3.1,77.2,6.6C251.2,264,252.5,263.1,252.5,260z"/>
<path class="st0" d="M281.4,253.8c-6-0.9-12-1.6-18-2.4c-2.7-0.4-3.9,0.5-3.9,3.3c0,3.9-0.1,7.7,0,11.5c0.1,3-1,4.9-3.5,6.4
	c-3.9,2.4-7.6,5-11.3,7.5c-0.6,0.4-1.6,0.8-1.4,1.8c0.1,0.9,1,0.8,1.6,0.9c11.8,1.6,23.7,3.2,35.8,4.9c0.5,0,1.5,0.3,2-0.6
	c0.4-0.9-0.3-1.6-0.8-2.2c-2.4-3-4.7-6.1-7.2-9c-2-2.4-2-4.6,0-7c2.9-3.5,5.7-7.1,8.5-10.6C285.7,255,285.5,254.4,281.4,253.8z"/>
<path class="st0" d="M40.8,278.5C31,274,26.5,266.9,28.6,256c0.6-3.3-0.5-5.6-3.6-4.4c-6.9,1-12.8,1.9-18.8,2.6
	c-3.5,0.4-3.1,1.7-1.3,3.9c3,3.6,5.8,7.3,8.8,10.9c2,2.4,1.9,4.7,0,7.1c-2.1,2.6-4.2,5.1-6.1,7.8c-0.8,1-2.6,2-1.9,3.4
	c0.8,1.5,2.8,0.6,4.2,0.4c9.9-1.3,19.8-2.6,29.8-4c1.8-0.3,4.7,0.1,5.2-1.5C45.2,280.1,42.4,279.2,40.8,278.5z"/>
<path class="st0" d="M284.9,112.5c-3.6-0.9-7.2-1.9-10.9-1.8c-9.5,0-16.1,4.9-18.6,13.8c-0.4,1.6-0.6,2.8,1,4
	c5.1,3.9,13.5,4.4,19.1,1c5.1-3.1,8.5-7.7,11.3-12.8C288.1,114.2,287.2,113.1,284.9,112.5z"/>
<path class="st0" d="M235.9,170c-7.5,9.8-6.4,11.1,4.6,14.6c1.2,0.4,2.4,0.5,3.1,0.6c7.4,0,18-8.1,20.4-14.9c0.7-1.9-0.4-2.4-1.8-3
	c-3.4-1.4-7-2.4-10.7-2.8C245.5,163.9,239.7,165.1,235.9,170z"/>
<path class="st0" d="M51.6,27.9c8,2.3,10.1,0.7,10.1-9.1C61.5,11,56,5.9,48.1,2.5c-9.5-4.1-10.8-3.2-9.9,7.2
	C39,19.2,43.7,25.6,51.6,27.9z"/>
<path class="st0" d="M26.2,79.7c7.5,0,8.5-1.2,7.2-8.5c-1.5-8.4-6.9-12.9-14.8-14.7c-3.9-0.9-9.1-3.3-11.7-0.1
	C4.5,59.3,7.5,64,9,67.6C12.3,75.9,18,79.8,26.2,79.7z"/>
<path class="st0" d="M261.2,79.7c10.9,0.1,20.8-10.7,20.4-22c0-1.3-0.4-2-1.7-2.3c-10.4-2.8-23.4,5.4-25.5,16
	C253.1,78.6,254,79.7,261.2,79.7z"/>
<path class="st0" d="M30.4,129.1c2.2-1.2,2.8-2.5,2-5c-2.8-8.7-9.2-13.5-18.4-13.4c-1,0-2-0.2-2.9,0c-3.6,0.9-8.9-0.1-10.3,3.6
	c-1.2,3.3,2.7,6.5,5,9.3C12.8,132.1,21.4,133.9,30.4,129.1z"/>
<path class="st0" d="M24.1,168.7c-1.2,3.4,2.9,6.4,5.3,9c7.8,8.3,16,9.6,25.1,4.1c2-1.2,2.6-2.4,1.8-4.7c-2.8-8-9.5-12.8-18.9-12.7
	c-0.6,0.1-2.2,0.3-3.8,0.6C30.2,165.7,25.2,165.7,24.1,168.7z"/>
<path class="st0" d="M226.5,23.1c0.5,5.4,1.3,6.1,6.7,5.4c9.3-1.2,14.7-7.2,16.4-18.4c0.5-3.2,1.8-7.2-0.8-9.4
	c-2.4-2-5.6,0.7-8.5,1.6c-2.8,0.8-5.2,2.4-7.5,4.3c-4.3,3.5-6.7,7.9-6.3,14.4C226.5,21.2,226.4,22.1,226.5,23.1z"/>
<path class="st0" d="M146.7,42l15.6,47.9c0.3,1,1.3,1.7,2.4,1.7H215c2.4,0,3.4,3.1,1.5,4.5l-40.8,29.6c-0.9,0.6-1.2,1.8-0.9,2.8
	l15.6,47.9c0.7,2.3-1.9,4.2-3.8,2.8l-40.8-29.6c-0.9-0.6-2-0.6-2.9,0l-40.8,29.6c-1.9,1.4-4.6-0.5-3.8-2.8l15.6-47.9
	c0.3-1,0-2.1-0.9-2.8L72.2,96.1c-1.9-1.4-0.9-4.5,1.5-4.5H124c1.1,0,2-0.7,2.4-1.7L141.9,42C142.7,39.7,145.9,39.7,146.7,42z"/>
</svg>
