<?xml version="1.0" encoding="utf-8"?>
<!-- Generator: Adobe Illustrator 25.0.0, SVG Export Plug-In . SVG Version: 6.00 Build 0)  -->
<svg version="1.1" id="logo-dark" xmlns="http://www.w3.org/2000/svg" xmlns:xlink="http://www.w3.org/1999/xlink" x="0px" y="0px"
	 viewBox="0 0 195.5 216.1" style="enable-background:new 0 0 195.5 216.1;" xml:space="preserve">
<style type="text/css">
	.st0{fill-rule:evenodd;clip-rule:evenodd;fill:#FFFFFF;}
	.st1{fill-rule:evenodd;clip-rule:evenodd;fill:#1D1D1B;}
	.st2{fill:#FFFFFF;}
</style>
<g>
	<path class="st0" d="M154.4,121.2c-12.2,18.3-33,30.3-56.7,30.3s-44.5-12-56.7-30.3H154.4L154.4,121.2z"/>
	<path class="st1" d="M44,123.3h45.8l-7.6,13.1H56C51.4,132.6,47.4,128.2,44,123.3L44,123.3z M151.5,123.3c-3.4,4.9-7.5,9.3-12,13.1
		h-28l-3.9-10.2l1.6-2.8H151.5L151.5,123.3z"/>
	<polygon class="st1" points="74.8,46.9 73.6,44.9 72.9,44.9 68.4,40.9 67,36.6 68,34.1 73.6,30.7 76.3,31.1 76.7,32.3 79.2,34.5 
		79.2,35.5 81.2,36.9 80.9,37.7 81.4,38.2 81.2,38.9 81.7,39.2 81.7,40.3 82.3,40.6 85.5,37.6 101.3,36.7 110.4,30.8 111.1,26.9 
		113,26 113.9,26.8 114.7,26.9 116.2,29.3 116.2,31 114.6,33.1 112.7,33.9 114.4,36.6 106.2,42.3 97.3,45 99.4,46.3 108.9,45.1 
		140.9,9.6 145.5,10.3 145.9,11.6 140.1,17.4 139.6,19.6 137,20.2 134.8,23.2 139.1,30.7 110.7,61.7 109.3,84.8 113.9,103.1 
		107.5,106.8 106.8,119.4 92.8,119.5 92.3,118.7 98.1,116.5 102.2,113.3 96.7,67 93.5,62.7 91.4,78.1 88.8,77.1 91.4,62.4 89,62.6 
		81.1,69.5 75.5,68.2 72.4,52.5 73.9,49.4 73,47.8 74.8,46.9 	"/>
	<path class="st2" d="M33.7,188c-1,0-1.8-0.2-2.5-0.6c-0.7-0.4-1.2-0.9-1.6-1.6c-0.4-0.7-0.6-1.5-0.6-2.5v-1l3.2,0v1
		c0,0.5,0.1,0.8,0.4,1.1c0.3,0.3,0.6,0.4,1.1,0.4c0.5,0,0.8-0.1,1.1-0.4c0.3-0.3,0.4-0.6,0.4-1.1v-1.6c0-0.3-0.1-0.6-0.3-0.9
		c-0.2-0.3-0.4-0.5-0.7-0.7c-0.3-0.2-0.7-0.4-1.2-0.7c0,0-0.1,0-0.1-0.1c0,0-0.1,0-0.1,0l-0.2-0.1c-0.7-0.4-1.3-0.7-1.8-1.1
		c-0.5-0.4-0.9-0.9-1.2-1.5c-0.3-0.6-0.5-1.4-0.5-2.3v-1c0-1,0.2-1.8,0.5-2.5c0.4-0.7,0.9-1.2,1.6-1.6c0.7-0.4,1.5-0.5,2.5-0.5
		c1,0,1.8,0.2,2.5,0.5c0.7,0.4,1.2,0.9,1.6,1.6c0.4,0.7,0.5,1.5,0.5,2.5v1.1l-3.2,0v-1.1c0-0.5-0.1-0.9-0.4-1.1
		c-0.2-0.3-0.6-0.4-1-0.4c-0.5,0-0.8,0.1-1.1,0.4s-0.4,0.6-0.4,1v1.3c0,0.4,0.1,0.7,0.3,0.9c0.2,0.3,0.4,0.5,0.7,0.7
		c0.3,0.2,0.7,0.4,1.2,0.6c0.1,0,0.2,0.1,0.3,0.1c0.1,0.1,0.2,0.1,0.3,0.2c0,0,0,0,0,0c0,0,0,0,0,0c0.7,0.4,1.3,0.7,1.7,1.1
		c0.4,0.3,0.8,0.8,1.1,1.4c0.3,0.6,0.5,1.3,0.5,2.2v1.6c0,1-0.2,1.8-0.5,2.5c-0.4,0.7-0.9,1.2-1.6,1.6C35.5,187.9,34.6,188,33.7,188
		L33.7,188z M59.5,188c-1,0-1.9-0.2-2.6-0.5c-0.7-0.3-1.3-0.9-1.6-1.5c-0.4-0.7-0.6-1.5-0.6-2.4v-10.3c0-0.9,0.2-1.7,0.6-2.4
		c0.4-0.7,0.9-1.2,1.6-1.5c0.7-0.3,1.6-0.5,2.6-0.5c1,0,1.9,0.2,2.6,0.5c0.7,0.3,1.3,0.9,1.6,1.5c0.4,0.7,0.6,1.5,0.6,2.4v10.3
		c0,0.9-0.2,1.7-0.6,2.4c-0.4,0.7-0.9,1.2-1.6,1.5C61.4,187.9,60.5,188,59.5,188L59.5,188z M59.5,184.8c0.3,0,0.6-0.1,0.8-0.2
		c0.2-0.1,0.4-0.3,0.5-0.6c0.1-0.2,0.2-0.5,0.2-0.9v-9.5c0-0.3-0.1-0.6-0.2-0.9c-0.1-0.2-0.3-0.4-0.5-0.6c-0.2-0.1-0.5-0.2-0.8-0.2
		c-0.3,0-0.6,0.1-0.8,0.2c-0.2,0.1-0.4,0.3-0.5,0.6c-0.1,0.2-0.2,0.5-0.2,0.9v9.5c0,0.3,0.1,0.6,0.2,0.9c0.1,0.2,0.3,0.4,0.5,0.6
		C58.9,184.8,59.2,184.8,59.5,184.8L59.5,184.8z M82.5,184.8h2.8c0.4,0,0.7-0.1,0.9-0.3c0.2-0.2,0.3-0.5,0.3-0.9v-2.5
		c0-0.3-0.1-0.6-0.2-0.8c-0.1-0.2-0.2-0.4-0.4-0.5c-0.2-0.1-0.4-0.2-0.7-0.2h-2.8v-3h2.7c0.4,0,0.7-0.1,0.9-0.4
		c0.2-0.2,0.3-0.6,0.3-1v-2c0-0.4-0.1-0.7-0.3-0.9c-0.2-0.2-0.5-0.3-0.9-0.3h-2.7v-3h3c0.8,0,1.6,0.2,2.2,0.5
		c0.6,0.3,1.1,0.7,1.4,1.3c0.3,0.6,0.5,1.3,0.5,2.1v2c0,0.6-0.1,1.1-0.3,1.5c-0.2,0.4-0.5,0.8-0.9,1.1c-0.4,0.3-0.9,0.5-1.5,0.6
		c0.6,0.1,1.2,0.3,1.6,0.6c0.4,0.3,0.8,0.7,1,1.1c0.2,0.5,0.4,1,0.4,1.6v2.6c0,0.8-0.2,1.5-0.5,2.1c-0.3,0.6-0.8,1-1.4,1.3
		c-0.6,0.3-1.3,0.5-2.2,0.5h-3.3V184.8L82.5,184.8z M80.7,169.1h3.2v18.8h-3.2V169.1L80.7,169.1z M111.6,169.1h3.2v18.8h-3.2V169.1
		L111.6,169.1z M105.9,169.1h3.2v18.8h-3.2V169.1L105.9,169.1z M107.4,177.1h6.3v3h-6.3V177.1L107.4,177.1z M134.8,169.1h2.3
		l4.5,18.8h-3.2l-2.4-12.3l-2.4,12.3h-3.2L134.8,169.1L134.8,169.1z M133.4,181.9h5.1v3h-5.1V181.9L133.4,181.9z M157,169.1h2.5
		l4.4,12.5l-0.3,0.5v-13h2.9v18.8H164l-4.4-11.8l0.3-0.5v12.3H157V169.1L157,169.1z"/>
	<path class="st2" d="M56,201.4l2.1-5.8h2.1l-4.2,9.1V201.4L56,201.4z M54.5,195.6h1.8v10.8h-1.8V195.6L54.5,195.6z M56.7,200.5
		l1.3-1.1l2.6,7h-2L56.7,200.5L56.7,200.5z M63,195.6h1.3l2.6,10.8h-1.8l-1.4-7.1l-1.4,7.1h-1.8L63,195.6L63,195.6z M62.2,203h2.9
		v1.7h-2.9V203L62.2,203z M68.5,200.1h1.9c0.2,0,0.3,0,0.4-0.1c0.1-0.1,0.2-0.1,0.3-0.2c0.1-0.1,0.1-0.2,0.1-0.4v-1.2
		c0-0.2,0-0.3-0.1-0.4c-0.1-0.1-0.1-0.2-0.3-0.3c-0.1-0.1-0.3-0.1-0.4-0.1h-1.9v-1.8h1.8c0.6,0,1.1,0.1,1.5,0.3
		c0.4,0.2,0.7,0.5,0.9,0.8c0.2,0.4,0.3,0.8,0.3,1.3v1.3c0,0.5-0.1,1-0.3,1.4c-0.2,0.4-0.5,0.7-0.9,0.9c-0.4,0.2-0.9,0.3-1.5,0.3
		h-1.8V200.1L68.5,200.1z M67.7,195.6h1.8v10.8h-1.8V195.6L67.7,195.6z M70,201.5l1.7-0.3l1.7,5.2h-2L70,201.5L70,201.5z
		 M76.3,195.6h1.3l2.6,10.8h-1.8l-1.4-7.1l-1.4,7.1h-1.8L76.3,195.6L76.3,195.6z M75.5,203h2.9v1.7h-2.9V203L75.5,203z M81.7,196.5
		h1.8v9.9h-1.8V196.5L81.7,196.5z M79.9,195.6h5.4v1.8h-5.4V195.6L79.9,195.6z M85.9,195.6h1.8v10.8h-1.8V195.6L85.9,195.6z
		 M86.7,204.6h4v1.8h-4V204.6L86.7,204.6z M86.7,200.1h3.6v1.8h-3.6V200.1L86.7,200.1z M86.7,195.6h4v1.8h-4V195.6L86.7,195.6z
		 M98.1,195.6h1.3l2.6,10.8h-1.8l-1.4-7.1l-1.4,7.1h-1.8L98.1,195.6L98.1,195.6z M97.3,203h2.9v1.7h-2.9V203L97.3,203z M105.1,206.5
		c-0.5,0-1-0.1-1.4-0.3c-0.4-0.2-0.7-0.5-0.9-0.9c-0.2-0.4-0.3-0.9-0.3-1.5v-5.5c0-0.6,0.1-1.1,0.3-1.5c0.2-0.4,0.5-0.7,0.9-0.9
		c0.4-0.2,0.8-0.3,1.4-0.3c0.5,0,1,0.1,1.4,0.3c0.4,0.2,0.7,0.5,0.9,0.9c0.2,0.4,0.3,0.9,0.3,1.5v0.9h-1.9v-0.9c0-0.2,0-0.3-0.1-0.5
		c-0.1-0.1-0.1-0.2-0.2-0.3c-0.1-0.1-0.2-0.1-0.4-0.1c-0.1,0-0.3,0-0.4,0.1c-0.1,0.1-0.2,0.2-0.2,0.3c-0.1,0.1-0.1,0.3-0.1,0.5v5.5
		c0,0.2,0,0.3,0.1,0.5c0.1,0.1,0.1,0.2,0.2,0.3c0.1,0.1,0.2,0.1,0.4,0.1c0.2,0,0.3,0,0.4-0.1c0.1-0.1,0.2-0.2,0.2-0.3
		c0.1-0.1,0.1-0.3,0.1-0.5v-0.9h1.9v0.9c0,0.6-0.1,1.1-0.3,1.5c-0.2,0.4-0.5,0.7-0.9,0.9C106.2,206.4,105.7,206.5,105.1,206.5
		L105.1,206.5z M110.7,195.6h1.3l2.6,10.8h-1.8l-1.4-7.1l-1.4,7.1h-1.8L110.7,195.6L110.7,195.6z M109.9,203h2.9v1.7h-2.9V203
		L109.9,203z M116.6,204.6h1.4c0.2,0,0.4-0.1,0.6-0.2c0.1-0.1,0.2-0.4,0.2-0.6v-5.5c0-0.3-0.1-0.5-0.2-0.6c-0.1-0.2-0.3-0.2-0.6-0.2
		h-1.4v-1.8h1.6c0.5,0,1,0.1,1.3,0.3c0.4,0.2,0.6,0.5,0.8,0.8c0.2,0.4,0.3,0.8,0.3,1.3v5.9c0,0.5-0.1,0.9-0.3,1.3
		c-0.2,0.4-0.5,0.6-0.8,0.8c-0.4,0.2-0.8,0.3-1.3,0.3h-1.6V204.6L116.6,204.6z M115.4,195.6h1.8v10.8h-1.8V195.6L115.4,195.6z
		 M121.9,195.6h1.8v10.8h-1.8V195.6L121.9,195.6z M122.7,204.6h4v1.8h-4V204.6L122.7,204.6z M122.7,200.1h3.6v1.8h-3.6V200.1
		L122.7,200.1z M122.7,195.6h4v1.8h-4V195.6L122.7,195.6z M133,195.6h1.7v10.8h-1.6v-7.5l0.1,0.5l-1.6,5.1h-0.9l-1.6-5l0.1-0.6v7.5
		h-1.7v-10.8h1.8l1.8,5.8L133,195.6L133,195.6z M139,202.3v4.1h-1.8v-4.1l-2-6.6h1.9l1,4.5l1-4.5h1.9L139,202.3L139,202.3z"/>
	<path class="st2" d="M97.7,17c10.1,0,19.6,2.2,28.2,6l-2.8,3.1c-7.8-3.3-16.4-5.2-25.5-5.2c-17.9,0-34.2,7.3-45.9,19
		c-11.7,11.8-19,28-19,45.9c0,17.9,7.3,34.2,19,45.9c11.8,11.8,28,19,45.9,19s34.2-7.3,45.9-19c11.8-11.8,19-28,19-45.9
		c0-17.9-7.3-34.2-19-45.9c-1.8-1.8-3.6-3.4-5.5-4.9l2.6-2.9c2,1.6,3.9,3.3,5.7,5.1c12.5,12.5,20.2,29.7,20.2,48.7
		c0,19-7.7,36.2-20.2,48.7c-12.5,12.5-29.7,20.2-48.7,20.2c-19,0-36.2-7.7-48.7-20.2c-12.5-12.5-20.2-29.7-20.2-48.7
		c0-19,7.7-36.2,20.2-48.7C61.5,24.7,78.7,17,97.7,17L97.7,17z"/>
	<polygon class="st1" points="105.5,162.3 98.1,142.4 106.2,128.5 116.6,156.2 105.5,162.3 	"/>
	<polygon class="st1" points="82.5,164.9 106.8,123.3 92.4,123.3 72.8,156.8 82.5,164.9 	"/>
</g>
</svg>
