<?xml version="1.0" encoding="utf-8"?>
<!-- Generator: Adobe Illustrator 25.0.0, SVG Export Plug-In . SVG Version: 6.00 Build 0)  -->
<svg version="1.1" id="Layer_1" xmlns="http://www.w3.org/2000/svg" xmlns:xlink="http://www.w3.org/1999/xlink" x="0px" y="0px"
	 viewBox="0 0 288 288" style="enable-background:new 0 0 288 288;" xml:space="preserve">
<style type="text/css">
	.st0{fill:#FFFFFF;}
</style>
<g>
	<g>
		<path class="st0" d="M83.84,0c7.96,2.01,14.44,6.09,18.74,13.27c5.68,9.5,5.09,21.27-1.59,30.4
			c-6.47,8.84-17.72,13.02-28.38,10.53C61.7,51.65,53.4,42.96,51.56,32.16c-2.44-14.32,5.98-27.55,20-31.47
			c0.72-0.2,1.42-0.45,2.14-0.68C77.08,0,80.46,0,83.84,0z"/>
		<path class="st0" d="M100.88,287.97c-3.12-0.07-7.69-2.52-10.43-7.65c-1.15-2.15-2.46-3.41-4.84-3.51
			c-2.23-0.09-3.02-1.19-3.07-3.41c-0.33-16.38-0.73-32.76-1.17-49.14c-0.32-11.88-0.72-23.77-1.08-35.65
			c-0.03-1.11,0.14-2.43-1.59-2.37c-1.73,0.06-1.42,1.45-1.45,2.51c-0.39,13.76-0.76,27.51-1.13,41.27
			c-0.39,14.5-0.8,29.01-1.14,43.52c-0.05,2.08-0.8,3.11-2.92,3.25c-2.28,0.15-3.75,1.18-4.93,3.39c-3.08,5.78-8.24,8.31-14.74,7.73
			c-6.04-0.54-10.31-3.82-12.62-9.38c-0.78-1.87-1.56-3.28-3.7-3.66c-1.75-0.31-2.06-1.63-1.91-3.2c0.83-8.94,1.62-17.88,2.44-26.82
			c0.85-9.31,1.72-18.62,2.57-27.94c0.89-9.78,1.78-19.56,2.66-29.34c0.18-2.02,0.85-4.19-2.48-4.43c-1.58-0.12-1.17-1.58-0.98-2.7
			c1.28-7.37,2.46-14.76,3.82-22.12c0.61-3.29,0.49-6.52-0.07-9.77c-0.41-2.36,0.15-3.48,2.87-3.18c7.54,0.84,15.1,1.58,22.7,1.79
			c2.97,0.08,1.93,1.66,1.09,3.14c-7.63,13.37-13.19,27.5-16.02,42.66c-0.14,0.74-0.25,1.48-0.36,2.21
			c-0.55,3.55-0.36,3.72,3.16,4.15c2.11,0.25,3.01-0.49,3.36-2.63c2.66-16.18,8.49-31.2,16.94-45.23c2.87-4.76,2.94-4.77,5.88,0.12
			c8.45,14.03,14.26,29.06,16.9,45.25c0.45,2.77,2.03,2.68,4.04,2.38c1.95-0.29,3.11-0.66,2.66-3.33
			c-2.76-16.06-8.35-31.05-16.36-45.2c-1.74-3.07-1.58-3.47,1.85-3.57c7.13-0.21,14.2-1.04,21.3-1.67c3.54-0.32,3.79-0.04,3.15,3.49
			c-1.15,6.37,0.75,12.45,1.67,18.63c0.64,4.25,1.37,8.5,2.21,12.72c0.36,1.79,0.23,2.99-1.91,3.1c-1.82,0.09-1.76,1.39-1.65,2.63
			c0.61,6.99,1.24,13.97,1.87,20.96c0.86,9.5,1.73,19,2.59,28.5c1.06,11.74,2.07,23.48,3.23,35.2c0.24,2.4-0.04,4.06-2.73,4.52
			c-1.49,0.26-2.01,1.35-2.51,2.67C115.63,284.26,110.22,287.98,100.88,287.97z"/>
		<path class="st0" d="M78.55,140.74c-7.6,0.08-15.2-0.12-22.75-1c-2.98-0.35-3.02-0.49-1.08-2.77
			c10.89-12.81,20.78-26.34,29.21-40.9c6.16-10.64,11.6-21.64,15.37-33.37c0.66-2.07,1.76-2.59,3.83-2.79
			c5.99-0.57,10.49,2.42,14.81,5.77c10.84,8.4,17.32,19.81,21.77,32.47c4.25,12.1,6.17,24.64,6.91,37.42
			c0.39,6.65,0.46,13.29,0.32,19.93c-0.03,1.62,0.03,3.29-2.4,3.25c-1.3-0.02-1.35,1.06-1.35,2.04c-0.01,2.44,0.03,4.87-0.03,7.31
			c-0.15,5.6-4.33,9.78-9.82,9.9c-5.42,0.11-9.85-4-10.17-9.57c-0.13-2.33-0.12-4.69-0.02-7.02c0.09-1.99-0.56-3.05-2.7-2.85
			c-2.33,0.22-3-0.9-3.06-3.16c-0.12-4.95-0.63-9.9-0.82-14.85c-0.08-1.98-0.94-2.24-2.66-2.03
			C102.16,139.97,90.39,140.92,78.55,140.74z"/>
		<path class="st0" d="M14.36,164.8c0-1.41,0-2.81,0-4.22c0-0.9-0.16-1.83-1.28-1.81c-2.59,0.04-2.45-1.76-2.5-3.46
			c-0.23-7.87-0.17-15.73,0.51-23.58c1.12-13.02,3.4-25.79,8.36-37.96c4.53-11.1,10.78-21,20.49-28.37
			c4.38-3.32,8.97-6.16,14.91-5.47c1.65,0.19,2.54,0.7,2.99,2.3c3.59,12.93,8.08,25.53,14.08,37.56c0.68,1.35,0.47,2.41-0.33,3.63
			c-7.76,11.87-16.43,23.04-25.82,33.66c-0.5,0.56-1.04,1.38-1.77,1.27c-3.51-0.53-3.12,2.13-3.27,4.06
			c-0.34,4.29-0.56,8.6-0.59,12.9c-0.02,2.19-0.56,3.47-2.97,3.24c-2.33-0.22-2.9,1.01-2.79,3.06c0.11,2.15,0.1,4.31,0.01,6.46
			c-0.22,5.71-4.65,10.01-10.14,9.93c-5.61-0.08-9.77-4.33-9.89-10.11c-0.02-1.03,0-2.06,0-3.09
			C14.37,164.8,14.36,164.8,14.36,164.8z"/>
		<path class="st0" d="M78.5,59.98c3.94,0,7.88,0.05,11.81-0.02c1.97-0.03,2.83,0.52,2.08,2.62c-3.76,10.52-8.65,20.51-14.24,30.16
			c-0.99,1.71-1.65,1.36-2.38-0.22c-4.43-9.73-7.96-19.78-11-30.01c-0.55-1.85-0.08-2.6,1.91-2.57
			C70.63,60.03,74.57,59.98,78.5,59.98z"/>
	</g>
	<g>
		<path class="st0" d="M221.13,30.76c7.11,1.8,12.9,5.44,16.74,11.85c5.08,8.49,4.55,19-1.42,27.15c-5.77,7.9-15.83,11.63-25.35,9.4
			c-9.75-2.28-17.16-10.04-18.8-19.69c-2.18-12.79,5.34-24.61,17.87-28.11c0.64-0.18,1.27-0.41,1.91-0.61
			C215.09,30.76,218.11,30.76,221.13,30.76z"/>
		<path class="st0" d="M236.35,287.98c-2.79-0.06-6.87-2.25-9.32-6.83c-1.02-1.92-2.19-3.05-4.32-3.13
			c-1.99-0.08-2.7-1.07-2.74-3.04c-0.3-14.63-0.66-29.26-1.04-43.89c-0.28-10.61-0.64-21.23-0.97-31.84
			c-0.03-0.99,0.12-2.17-1.42-2.12c-1.55,0.06-1.27,1.29-1.3,2.24c-0.35,12.29-0.68,24.57-1.01,36.86
			c-0.35,12.96-0.72,25.91-1.01,38.87c-0.04,1.86-0.72,2.78-2.61,2.9c-2.03,0.13-3.35,1.05-4.4,3.03c-2.75,5.16-7.36,7.42-13.16,6.9
			c-5.39-0.49-9.21-3.42-11.27-8.38c-0.69-1.67-1.39-2.93-3.31-3.27c-1.57-0.28-1.84-1.45-1.71-2.86
			c0.74-7.98,1.45-15.97,2.18-23.96c0.76-8.32,1.53-16.64,2.29-24.95c0.8-8.73,1.59-17.47,2.38-26.21c0.16-1.81,0.76-3.74-2.21-3.96
			c-1.41-0.1-1.05-1.41-0.87-2.41c1.14-6.59,2.2-13.19,3.41-19.76c0.54-2.94,0.44-5.83-0.07-8.72c-0.37-2.11,0.14-3.11,2.56-2.84
			c6.74,0.75,13.49,1.41,20.27,1.6c2.65,0.07,1.72,1.49,0.97,2.81c-6.81,11.94-11.78,24.57-14.31,38.11
			c-0.12,0.66-0.22,1.32-0.32,1.98c-0.49,3.17-0.32,3.33,2.82,3.7c1.89,0.23,2.69-0.44,3-2.35c2.38-14.45,7.58-27.87,15.13-40.4
			c2.56-4.25,2.62-4.26,5.25,0.11c7.54,12.53,12.73,25.96,15.09,40.41c0.4,2.47,1.81,2.39,3.6,2.13c1.74-0.26,2.78-0.59,2.37-2.98
			c-2.47-14.34-7.46-27.74-14.61-40.37c-1.55-2.74-1.41-3.1,1.65-3.19c6.37-0.18,12.69-0.93,19.02-1.49
			c3.16-0.28,3.39-0.04,2.82,3.11c-1.03,5.69,0.67,11.12,1.49,16.64c0.57,3.8,1.22,7.59,1.97,11.36c0.32,1.6,0.21,2.67-1.7,2.77
			c-1.62,0.08-1.57,1.24-1.47,2.35c0.54,6.24,1.11,12.48,1.67,18.72c0.77,8.49,1.55,16.97,2.32,25.46
			c0.95,10.48,1.85,20.97,2.89,31.44c0.21,2.14-0.04,3.63-2.44,4.04c-1.33,0.23-1.8,1.2-2.24,2.39
			C249.53,284.66,244.69,287.98,236.35,287.98z"/>
		<path class="st0" d="M216.41,156.47c-6.79,0.07-13.57-0.11-20.32-0.9c-2.67-0.31-2.7-0.44-0.97-2.47
			c9.73-11.44,18.56-23.53,26.09-36.53c5.51-9.51,10.36-19.33,13.73-29.81c0.59-1.85,1.57-2.31,3.42-2.49
			c5.35-0.51,9.37,2.16,13.23,5.15c9.68,7.5,15.47,17.69,19.44,29c3.8,10.8,5.51,22.01,6.17,33.42c0.34,5.94,0.41,11.87,0.28,17.8
			c-0.03,1.44,0.02,2.94-2.14,2.91c-1.16-0.02-1.2,0.95-1.21,1.82c-0.01,2.18,0.03,4.35-0.03,6.53c-0.13,5-3.87,8.74-8.77,8.84
			c-4.84,0.1-8.8-3.58-9.09-8.55c-0.12-2.09-0.11-4.19-0.01-6.27c0.08-1.78-0.5-2.73-2.41-2.55c-2.08,0.19-2.68-0.8-2.73-2.82
			c-0.11-4.42-0.56-8.84-0.74-13.26c-0.07-1.77-0.84-2-2.37-1.81C237.49,155.78,226.98,156.63,216.41,156.47z"/>
		<path class="st0" d="M159.07,177.96c0-1.25,0-2.51,0-3.76c0-0.81-0.15-1.64-1.14-1.62c-2.31,0.04-2.19-1.58-2.23-3.09
			c-0.2-7.03-0.15-14.05,0.46-21.06c1-11.62,3.04-23.04,7.47-33.91c4.04-9.92,9.63-18.76,18.3-25.34c3.91-2.97,8.01-5.5,13.32-4.89
			c1.48,0.17,2.27,0.62,2.67,2.06c3.21,11.55,7.22,22.8,12.58,33.54c0.6,1.21,0.42,2.15-0.29,3.24
			c-6.94,10.6-14.68,20.58-23.06,30.07c-0.44,0.5-0.93,1.23-1.58,1.13c-3.13-0.47-2.78,1.9-2.92,3.63c-0.3,3.83-0.5,7.68-0.53,11.52
			c-0.02,1.95-0.5,3.1-2.65,2.89c-2.08-0.2-2.59,0.9-2.49,2.74c0.1,1.92,0.09,3.85,0.01,5.77c-0.2,5.1-4.15,8.94-9.06,8.87
			c-5.01-0.07-8.73-3.87-8.83-9.03c-0.02-0.92,0-1.84,0-2.76C159.08,177.96,159.08,177.96,159.07,177.96z"/>
		<path class="st0" d="M216.37,84.34c3.52,0,7.03,0.04,10.55-0.01c1.76-0.03,2.53,0.46,1.86,2.34c-3.36,9.4-7.72,18.32-12.72,26.94
			c-0.88,1.52-1.48,1.22-2.12-0.2c-3.95-8.69-7.11-17.66-9.82-26.8c-0.49-1.65-0.07-2.32,1.71-2.29
			C209.33,84.38,212.85,84.34,216.37,84.34z"/>
	</g>
</g>
</svg>
