<?xml version="1.0" encoding="utf-8"?>
<!-- Generator: Adobe Illustrator 25.0.0, SVG Export Plug-In . SVG Version: 6.00 Build 0)  -->
<svg version="1.1" id="Layer_1" xmlns="http://www.w3.org/2000/svg" xmlns:xlink="http://www.w3.org/1999/xlink" x="0px" y="0px"
	 viewBox="0 0 288 288" style="enable-background:new 0 0 288 288;" xml:space="preserve">
<style type="text/css">
	.st0{fill:#FFFFFF;}
</style>
<g>
	<path class="st0" d="M163.69,287.78c-16,0-32.01,0.25-48.01-0.07c-14.3-0.29-28.61-0.19-42.91-0.33c-3.87-0.04-5.15-1.28-5.16-5.18
		c-0.04-11.34-0.09-22.68,0.03-34.02c0.03-2.54-0.84-4.05-2.96-5.4c-10.54-6.72-20.99-13.59-31.47-20.41
		c-4.03-2.63-4.27-3.31-2.58-7.81c7.35-19.64,14.75-39.27,22.03-58.94c0.95-2.58,2.44-4.21,4.95-5.36
		c20.22-9.28,40.37-18.7,60.61-27.95c2.63-1.2,3.67-2.7,3.48-5.57c-0.23-3.59-0.06-7.2-0.07-10.81c0-0.86-0.01-1.89-0.9-2.22
		c-1.22-0.45-1.25,0.85-1.58,1.51c-1.11,2.23-2.67,3.84-5.26,2.68c-2.74-1.24-2.8-3.68-1.41-5.9c2.44-3.87,2-7.23-1-10.53
		c-0.69-0.76-1.13-1.79-1.56-2.76c-1.27-2.86-2.49-5.32-6.48-5.31c-2.57,0.01-4.47-2.27-5.74-4.58c-3.71-6.75-4.5-13.83-1.97-21.15
		c1.17-3.38,3.34-5.93,7.09-6.58c1.4-0.24,1.89-1.08,2.27-2.29c3.38-10.7,9.54-19.32,19.19-25.23c1.99-1.22,1.79-2.9,1.75-4.69
		c-0.17-7.83,3.49-13.48,10.3-16.88c6.92-3.45,13.67-2.39,19.64,2.4c4.76,3.82,7.02,9.03,6.6,15.12c-0.17,2.39,0.63,3.53,2.54,4.77
		c8.69,5.63,14.39,13.63,17.64,23.39c0.65,1.94,1.27,3.29,3.68,3.61c2.94,0.4,4.85,2.61,5.92,5.27c3.25,8.02,2.49,15.76-2.1,23.06
		c-1.66,2.64-4.16,4.26-7.43,4.13c-1.69-0.07-2.47,0.74-3.06,2.16c-1.23,2.94-2.84,5.7-4.71,8.27c-1.13,1.57-1.39,2.91-0.36,4.63
		c0.81,1.35,1.42,2.85,1.9,4.36c0.66,2.07,0.07,3.83-2.03,4.74c-2.14,0.92-3.68-0.01-4.74-1.92c-0.26-0.46-0.44-0.97-0.69-1.43
		c-0.29-0.53-0.45-1.32-1.27-1.14c-0.66,0.14-1.16,0.75-1.17,1.37c-0.06,4.97-0.14,9.95,0,14.92c0.04,1.46,1.71,1.75,2.83,2.27
		c16.13,7.51,32.28,15,48.43,22.49c4.23,1.96,8.42,4,12.71,5.83c2.44,1.04,3.81,2.75,4.72,5.19c7.42,19.96,14.88,39.9,22.44,59.8
		c1.17,3.09,0.31,4.97-2.3,6.66C245.2,228.64,235,235.51,224.57,242c-3.12,1.94-4.13,4.13-4.06,7.69
		c0.22,10.81,0.09,21.62,0.07,32.43c-0.01,4.92-1,5.88-6.02,5.88c-16.96,0.01-33.91,0-50.87,0
		C163.69,287.93,163.69,287.85,163.69,287.78z M186.6,66.09c-0.07-1.79,0.1-3.61-0.6-5.33c-0.39-0.95-0.68-1.67-2.05-1.09
		c-4.62,1.96-6.1,1.1-6.91-3.96c-0.74-4.55-2.26-8.81-4.53-12.8c-9.79-17.25-29.84-22.73-45.37-12.31
		c-8.91,5.99-13.97,14.55-15.95,25.02c-0.86,4.53-2.1,5.37-6.44,4.02c-1.56-0.48-1.98,0.35-2.26,1.39
		c-1.17,4.46-0.74,8.82,1.15,13.01c0.52,1.15,1.07,1.9,2.62,0.82c3.16-2.2,5.11-1.57,6.58,2.07c1.44,3.54,3.08,6.97,4.84,10.35
		c1.06,2.04,1.94,2.65,3.91,0.73c4.17-4.05,9.23-6.35,15.13-6.38c2.37-0.02,4.22,0.99,4.32,3.65c0.1,2.7-1.58,3.63-4.08,3.73
		c-4.22,0.15-7.69,2.03-10.77,4.83c-1.66,1.51-1.84,2.67-0.16,4.43c11.17,11.65,25.99,11.45,36.7-0.53c1.17-1.31,1.23-2.16,0-3.44
		c-3.08-3.21-6.78-5.04-11.21-5.28c-2.53-0.13-4.13-1.32-4.04-3.88c0.09-2.44,1.93-3.38,4.16-3.5c1.05-0.06,2.12,0.04,3.16,0.19
		c4.77,0.71,8.89,2.87,12.3,6.18c1.75,1.7,2.45,1.12,3.45-0.62c2.07-3.6,3.58-7.43,5.16-11.25c1.36-3.31,3.93-4.03,6.46-1.65
		c1.69,1.59,2.27,0.8,2.95-0.67C186.25,71.37,186.67,68.77,186.6,66.09z M101.58,191.22c0.43-2.42-0.23-3.11-1.73-3.06
		c-0.95,0.03-1.91,0.02-2.86,0.08c-14.75,0.95-29.15-0.66-42.97-6.11c-2.24-0.88-3.13-0.48-3.94,1.74
		c-3.56,9.74-7.15,19.47-10.99,29.1c-1.1,2.75-0.51,4.08,1.88,5.61c16.39,10.51,32.69,21.17,49.03,31.77
		c2.86,1.86,3.17,1.69,3.62-1.63c1.18-8.59,2.39-17.17,3.58-25.75C98.71,212.09,100.21,201.2,101.58,191.22z M186.34,190.43
		c0.12,0.56,0.25,1.08,0.32,1.6c0.92,6.6,1.85,13.21,2.76,19.81c1.72,12.47,3.44,24.95,5.15,37.43c0.27,1.96,0.75,3,2.98,1.55
		c16.85-11.02,33.73-21.99,50.64-32.92c1.68-1.09,1.89-2.21,1.22-3.97c-3.34-8.7-6.67-17.41-9.81-26.18c-0.88-2.47-2-2.58-4.22-1.79
		c-8.74,3.13-17.73,4.84-27.07,4.81c-6.38-0.02-12.69-0.51-18.94-1.73C188.07,188.78,186.49,188.17,186.34,190.43z M129.05,110.16
		c0,4.12-0.15,7.6,0.04,11.07c0.17,3.12-1.12,4.95-3.94,6.11c-2.94,1.21-5.76,2.68-8.67,3.97c-1.35,0.6-1.88,1.12-0.69,2.5
		c3.46,4.01,6.86,8.08,10.18,12.2c1.23,1.53,1.89,1.31,3.09-0.11c8.73-10.3,21.49-10.22,30.27,0.2c1.18,1.4,1.78,1.36,2.85,0.01
		c2.37-2.99,4.84-5.9,7.3-8.81c4.34-5.13,4.35-5.12-1.7-7.86c-10.29-4.65-8.5-3.24-8.64-13.21c-0.07-5.54-0.01-5.54-5-3.66
		c-0.5,0.19-0.99,0.37-1.5,0.53C144.61,115.72,136.98,114.43,129.05,110.16z M147.99,173.95c0,7.94,0.08,15.89-0.05,23.83
		c-0.04,2.39,0.83,3.35,3.12,3.79c8.83,1.69,17.63,3.56,26.44,5.33c3.27,0.66,3.64,0.31,3.2-3.13c-0.59-4.61-1.31-9.21-1.92-13.83
		c-0.27-2.03-1.35-3.12-3.28-3.79c-4.7-1.62-9.34-3.43-14.02-5.11c-2.24-0.8-3.39-2.27-3.63-4.67c-0.57-5.68-1.25-11.35-1.93-17.02
		c-0.5-4.12-0.98-8.28-4.7-11.03c-0.75-0.55-1.53-1.46-2.51-1.07c-1.1,0.44-0.7,1.66-0.71,2.55
		C147.97,157.85,147.98,165.9,147.99,173.95z M140.22,173.97c0-8.05,0.01-16.1-0.02-24.14c0-0.9,0.38-2.11-0.71-2.56
		c-0.98-0.4-1.76,0.49-2.49,1.09c-2.39,1.96-3.86,4.43-4.21,7.56c-0.77,6.72-1.68,13.43-2.35,20.16c-0.28,2.86-1.73,4.29-4.31,5.18
		c-4.5,1.55-8.91,3.37-13.41,4.92c-1.94,0.66-2.99,1.76-3.26,3.78c-0.64,4.93-1.35,9.85-2.04,14.77c-0.29,2.08,0.29,2.88,2.63,2.38
		c9-1.94,18.02-3.78,27.06-5.51c2.51-0.48,3.2-1.7,3.16-4.12C140.14,189.65,140.22,181.81,140.22,173.97z"/>
	<path class="st0" d="M128.16,55.41c1.14,0.19,2.32,0.27,3.41,0.61c1.55,0.49,2.45,1.64,2.47,3.32c0.03,1.67-0.8,2.89-2.33,3.43
		c-2.37,0.85-4.81,0.76-7.16-0.1c-1.41-0.51-2.17-1.68-2.2-3.2c-0.02-1.52,0.73-2.61,2.07-3.31
		C125.59,55.56,126.86,55.55,128.16,55.41z"/>
	<path class="st0" d="M160.5,55.39c1.13,0.2,2.32,0.26,3.39,0.64c1.66,0.58,2.58,1.91,2.43,3.68c-0.13,1.6-1.08,2.72-2.69,3.18
		c-1.76,0.5-3.56,0.54-5.35,0.25c-2.09-0.33-3.6-1.37-3.57-3.71c0.03-2.48,1.63-3.51,3.85-3.82c0.62-0.08,1.27-0.01,1.9-0.01
		C160.48,55.53,160.49,55.46,160.5,55.39z"/>
</g>
</svg>
