<?xml version="1.0" encoding="utf-8"?>
<!-- Generator: Adobe Illustrator 25.0.0, SVG Export Plug-In . SVG Version: 6.00 Build 0)  -->
<svg version="1.1" id="Layer_1" xmlns="http://www.w3.org/2000/svg" xmlns:xlink="http://www.w3.org/1999/xlink" x="0px" y="0px"
	 viewBox="0 0 288 288" style="enable-background:new 0 0 288 288;" xml:space="preserve">
<style type="text/css">
	.st0{fill-rule:evenodd;clip-rule:evenodd;fill:#FFFFFF;}
	.st1{fill:#FFFFFF;}
</style>
<g>
	<path class="st0" d="M0,88.2h122.78l-20.38,35.03H32.25C19.99,113.08,9.13,101.29,0,88.2L0,88.2z M288,88.2
		c-9.13,13.09-19.99,24.88-32.26,35.03h-75l-10.37-27.44l4.41-7.59H288L288,88.2z"/>
	<polygon class="st0" points="164.86,192.74 145.05,139.33 166.59,102.3 194.5,176.33 164.86,192.74 	"/>
	<polygon class="st0" points="103.12,199.8 168.21,88.2 129.76,88.2 77.26,178.13 103.12,199.8 	"/>
</g>
<g>
	<path class="st1" d="M252.47,259.97c-0.08-8.67-0.1-17.34,0.01-26.01c0.03-2.91-1.07-4.05-4-4.47c-31.35-4.4-62.88-6.48-94.51-7.19
		c-17.74-0.4-35.46,0.39-53.18,1.4c-20.19,1.15-40.27,3.11-60.32,5.72c-3.58,0.47-4.64,1.97-4.59,5.3c0.12,8.25,0.11,16.51,0,24.77
		c-0.04,3.42,1.12,4.59,4.69,4.09c34.36-4.74,68.9-7.01,102.19-7.22c10.34,0.24,19.27,0.33,28.21,0.64
		c25.86,0.89,51.58,3.08,77.2,6.58C251.23,264.01,252.49,263.1,252.47,259.97z"/>
	<path class="st1" d="M281.4,253.8c-5.98-0.89-11.99-1.55-17.97-2.44c-2.69-0.4-3.88,0.54-3.85,3.26c0.04,3.85-0.13,7.71,0.03,11.55
		c0.12,2.96-1.03,4.9-3.51,6.44c-3.85,2.39-7.57,5.01-11.33,7.55c-0.65,0.44-1.56,0.82-1.4,1.83c0.14,0.87,1,0.8,1.65,0.89
		c11.84,1.61,23.69,3.21,35.76,4.85c0.55-0.04,1.53,0.32,1.97-0.6c0.42-0.89-0.33-1.56-0.82-2.18c-2.37-3.04-4.73-6.08-7.19-9.04
		c-1.99-2.39-2.01-4.62-0.02-7.03c2.89-3.5,5.68-7.08,8.48-10.65C285.73,255.02,285.52,254.41,281.4,253.8z"/>
	<path class="st1" d="M40.79,278.49C31,274.02,26.47,266.94,28.59,256c0.64-3.32-0.46-5.57-3.65-4.44
		c-6.88,0.98-12.84,1.93-18.84,2.63c-3.5,0.41-3.08,1.72-1.32,3.85c2.97,3.6,5.8,7.32,8.77,10.92c1.98,2.4,1.93,4.71,0.04,7.08
		c-2.06,2.58-4.16,5.11-6.14,7.75c-0.79,1.04-2.6,2.05-1.86,3.36c0.83,1.48,2.75,0.62,4.17,0.44c9.93-1.28,19.85-2.6,29.77-3.98
		c1.84-0.26,4.71,0.13,5.15-1.54C45.2,280.08,42.36,279.21,40.79,278.49z"/>
	<path class="st1" d="M284.86,112.48c-3.59-0.92-7.16-1.94-10.92-1.81c-9.48-0.03-16.06,4.87-18.63,13.78
		c-0.45,1.57-0.58,2.8,0.96,3.97c5.1,3.86,13.48,4.38,19.14,0.99c5.11-3.06,8.5-7.67,11.34-12.77
		C288.1,114.23,287.21,113.08,284.86,112.48z"/>
	<path class="st1" d="M235.89,170.02c-7.51,9.79-6.4,11.14,4.58,14.61c1.17,0.37,2.42,0.47,3.12,0.6c7.38,0,18-8.07,20.4-14.95
		c0.67-1.92-0.41-2.45-1.75-3.01c-3.44-1.44-7.04-2.38-10.73-2.76C245.49,163.89,239.69,165.06,235.89,170.02z"/>
	<path class="st1" d="M51.62,27.9c7.97,2.3,10.07,0.7,10.06-9.11c-0.14-7.82-5.73-12.93-13.54-16.33c-9.5-4.12-10.78-3.19-9.92,7.17
		C38.99,19.19,43.71,25.61,51.62,27.9z"/>
	<path class="st1" d="M26.23,79.75c7.49,0,8.51-1.15,7.22-8.51c-1.46-8.36-6.93-12.9-14.81-14.7c-3.93-0.9-9.07-3.27-11.73-0.12
		c-2.42,2.87,0.61,7.54,2.06,11.17C12.26,75.86,17.98,79.76,26.23,79.75z"/>
	<path class="st1" d="M261.24,79.72c10.89,0.07,20.8-10.65,20.42-22.02c-0.04-1.31-0.44-1.95-1.74-2.3
		c-10.39-2.81-23.43,5.37-25.48,16.05C253.07,78.57,253.98,79.67,261.24,79.72z"/>
	<path class="st1" d="M30.38,129.09c2.23-1.2,2.78-2.52,2-4.95c-2.78-8.7-9.21-13.49-18.42-13.38c-0.96,0-1.96-0.19-2.87,0.03
		c-3.63,0.87-8.91-0.05-10.26,3.61c-1.2,3.26,2.7,6.51,5.03,9.33C12.8,132.11,21.44,133.88,30.38,129.09z"/>
	<path class="st1" d="M24.15,168.73c-1.22,3.42,2.86,6.4,5.33,9.04c7.76,8.32,16.05,9.55,25.07,4.08c1.95-1.18,2.64-2.38,1.82-4.68
		c-2.83-7.96-9.49-12.81-18.87-12.74c-0.59,0.09-2.22,0.28-3.83,0.6C30.2,165.72,25.24,165.67,24.15,168.73z"/>
	<path class="st1" d="M226.5,23.11c0.47,5.4,1.33,6.07,6.72,5.37c9.33-1.22,14.72-7.17,16.36-18.37c0.47-3.2,1.78-7.25-0.84-9.41
		c-2.38-1.96-5.65,0.74-8.47,1.59c-2.79,0.85-5.23,2.44-7.48,4.28c-4.29,3.53-6.72,7.95-6.3,14.44
		C226.48,21.19,226.41,22.15,226.5,23.11z"/>
	<path class="st1" d="M146.66,41.98l15.58,47.94c0.33,1.02,1.28,1.71,2.36,1.71H215c2.4,0,3.4,3.07,1.46,4.48l-40.78,29.63
		c-0.87,0.63-1.23,1.75-0.9,2.77l15.58,47.94c0.74,2.28-1.87,4.18-3.81,2.77l-40.78-29.63c-0.87-0.63-2.04-0.63-2.91,0l-40.78,29.63
		c-1.94,1.41-4.56-0.49-3.81-2.77l15.58-47.94c0.33-1.02-0.03-2.14-0.9-2.77L72.15,96.12c-1.94-1.41-0.94-4.48,1.46-4.48h50.4
		c1.07,0,2.03-0.69,2.36-1.71l15.58-47.94C142.69,39.7,145.92,39.7,146.66,41.98z"/>
</g>
</svg>
