<?xml version="1.0" encoding="utf-8"?>
<!-- Generator: Adobe Illustrator 25.0.0, SVG Export Plug-In . SVG Version: 6.00 Build 0)  -->
<svg version="1.1" id="Layer_1" xmlns="http://www.w3.org/2000/svg" xmlns:xlink="http://www.w3.org/1999/xlink" x="0px" y="0px"
	 viewBox="0 0 288 288" style="enable-background:new 0 0 288 288;" xml:space="preserve">
<style type="text/css">
	.st0{fill:#C80C0F;}
</style>
<g>
	<path class="st0" d="M185.83,287.04c-7.95,0.04-15.28-4.92-18.18-12.76c-4.81-13.02-9.41-26.12-14.07-39.19
		c-4.37-12.24-8.71-24.48-13.08-36.72c-0.29-0.81-0.32-2.07-1.23-2.18c-1.17-0.15-1.37,1.23-1.79,2.04
		c-9.99,18.88-19.95,37.78-29.92,56.68c-3.9,7.4-7.83,14.79-11.69,22.22c-4.92,9.48-15.81,13.44-25.37,9.16
		c-9.81-4.4-14.34-15.03-10.33-25.15c4.79-12.08,9.91-24.03,14.89-36.03c12.83-30.92,25.64-61.84,38.51-92.74
		c0.73-1.76,0.75-3.33,0.19-5.12c-7.37-23.37-14.69-46.77-22.03-70.15c-1.61-5.13-0.98-6.9,3.41-10.01
		c20.42-14.44,40.83-28.9,61.24-43.35c1.29-0.91,2.55-1.86,3.9-2.66c3.15-1.88,6.33-1.25,8.34,1.56c1.88,2.64,1.33,6.23-1.54,8.38
		c-4.26,3.19-8.63,6.22-12.97,9.29c-15.83,11.21-31.64,22.45-47.53,33.57c-1.96,1.37-2.37,2.52-1.63,4.83
		c7.19,22.61,14.22,45.26,21.37,67.89c0.88,2.79,0.69,5.28-0.44,7.99C108,177.47,90.2,220.39,72.38,263.31
		c-0.3,0.73-0.6,1.46-0.87,2.2c-1.47,4.09,0.1,7.91,3.93,9.56c3.72,1.6,7.52,0.25,9.5-3.48c14.18-26.8,28.34-53.62,42.51-80.43
		c2.12-4,4.26-7.99,6.34-12.02c1.48-2.87,3.63-4.74,6.99-4.46c3.18,0.27,5.01,2.24,6.07,5.24c9.56,26.9,19.17,53.78,28.78,80.66
		c1.09,3.06,2.12,6.15,3.35,9.15c1.62,3.96,4.57,5.46,8.77,4.7c2.49-0.46,4.03-1.93,4.59-4.4c0.72-3.17,0.25-6.22-0.79-9.28
		c-10.68-31.31-21.26-62.64-32.05-93.91c-1.35-3.92-1.02-7.08,1.1-10.56c7-11.53,13.79-23.19,20.68-34.78
		c0.65-1.09,1.35-2.21,2.24-3.09c2.05-2.02,5.25-2.11,7.58-0.39c2.4,1.77,3.24,4.76,1.72,7.63c-2.26,4.26-4.79,8.37-7.24,12.53
		c-4.3,7.29-8.57,14.61-12.98,21.83c-1.2,1.97-1.29,3.72-0.56,5.84c10.53,30.73,20.98,61.49,31.52,92.22
		c1.52,4.42,1.81,8.81,0.97,13.37C202.77,280.92,195.55,287,185.83,287.04z"/>
	<path class="st0" d="M184.05,79.9c2.69,1.14,4.8,2.22,7.03,2.93c3.52,1.11,5.71,3.46,7.63,6.51c9.37,14.92,18.87,29.75,28.36,44.6
		c3.51,5.49,3,8.15-2.46,11.71c-10.96,7.16-21.94,14.28-32.92,21.42c-2.34,1.53-4.79,1.86-7.21,0.33c-2.22-1.4-2.99-3.57-2.64-6.13
		c0.3-2.15,1.74-3.42,3.45-4.53c8.92-5.79,17.77-11.67,26.75-17.36c2.26-1.43,2.56-2.47,1.05-4.79
		c-7.89-12.13-15.62-24.36-23.31-36.61c-1.48-2.35-3.25-3.95-5.89-5c-8.87-3.51-17.66-7.23-26.47-10.93
		c-12.5-5.25-19.77-17.05-18.68-30.24c1.03-12.54,10.37-23.22,22.94-26.21c13.17-3.14,27.44,3.61,33.17,15.7
		c6.15,12.96,2.77,27.97-8.21,36.48C185.88,78.37,185.15,78.99,184.05,79.9z M168.2,37.01c-9.6,0.03-17.52,7.88-17.55,17.41
		c-0.03,9.65,7.98,17.69,17.63,17.69c9.69,0,17.73-8.03,17.66-17.63C185.87,44.67,178.06,36.98,168.2,37.01z"/>
</g>
</svg>
