<?xml version="1.0" encoding="utf-8"?>
<!-- Generator: Adobe Illustrator 25.0.0, SVG Export Plug-In . SVG Version: 6.00 Build 0)  -->
<svg version="1.1" id="Layer_1" xmlns="http://www.w3.org/2000/svg" xmlns:xlink="http://www.w3.org/1999/xlink" x="0px" y="0px"
	 viewBox="0 0 288 288" style="enable-background:new 0 0 288 288;" xml:space="preserve">
<style type="text/css">
	.st0{fill:#C80C0F;}
	.st1{fill:#FFFFFF;stroke:#FFFFFF;stroke-width:0.9765;stroke-miterlimit:10;}
</style>
<path class="st0" d="M144,288c-38.46,0-74.63-14.98-101.82-42.18C14.98,218.63,0,182.46,0,144c0-38.46,14.98-74.63,42.18-101.82
	C69.37,14.98,105.54,0,144,0s74.63,14.98,101.82,42.18C273.02,69.37,288,105.54,288,144c0,38.46-14.98,74.63-42.18,101.82
	C218.63,273.02,182.46,288,144,288z"/>
<path class="st1" d="M144,284.62c-37.56,0-72.87-14.63-99.43-41.19C18.01,216.87,3.38,181.56,3.38,144
	c0-37.56,14.63-72.87,41.19-99.43C71.13,18.01,106.44,3.38,144,3.38s72.87,14.63,99.43,41.19s41.19,61.87,41.19,99.43
	c0,37.56-14.63,72.87-41.19,99.43C216.87,269.99,181.56,284.62,144,284.62z"/>
<g>
	<path class="st0" d="M207.91,26.99c-4.63-7.55-10.57-13.96-17.54-19.36C175.82,2.69,160.22,0,144,0C64.47,0,0,64.47,0,144
		c0,71.66,52.34,131.07,120.88,142.14c-9.62-3.51-18.18-9.24-25.45-17.1c-17.84-19.27-23.77-42.07-17.81-67.82
		c3.46-14.96,11.32-27.36,22.83-37.27c11.21-9.65,24.32-15.05,39.09-16.28c8.98-0.75,18-1.29,26.68-4.01
		c10.53-3.3,19.97-8.64,28.15-16.09c10.38-9.45,17.9-20.89,21.96-34.39C223.31,69.93,220.63,47.73,207.91,26.99z M153.1,86.37
		c-5.31,5.3-12.31,8.22-19.74,8.22c-0.04,0-0.09,0-0.13,0c-7.42-0.03-14.44-2.98-19.76-8.3c-5.33-5.33-8.26-12.32-8.24-19.69
		c0.05-15.18,12.88-28,28.03-28c0.01,0,0.02,0,0.02,0c15.41,0.01,28,12.53,28.06,27.9C161.36,73.98,158.44,81.04,153.1,86.37z"/>
	<path class="st0" d="M123.57,286.55c-0.9-0.13-1.8-0.27-2.69-0.41c0.01,0,0.02,0.01,0.03,0.01
		C121.79,286.29,122.68,286.42,123.57,286.55z"/>
	<path class="st0" d="M190.37,7.63C190.37,7.63,190.37,7.63,190.37,7.63c0.01,0,0.01,0,0.02,0.01
		C190.38,7.64,190.38,7.63,190.37,7.63z"/>
</g>
<circle class="st0" cx="133.47" cy="219.58" r="28.24"/>
</svg>
