<?xml version="1.0" encoding="utf-8"?>
<!-- Generator: Adobe Illustrator 25.0.0, SVG Export Plug-In . SVG Version: 6.00 Build 0)  -->
<svg version="1.1" id="Layer_1" xmlns="http://www.w3.org/2000/svg" xmlns:xlink="http://www.w3.org/1999/xlink" x="0px" y="0px"
	 viewBox="0 0 288 288" style="enable-background:new 0 0 288 288;" xml:space="preserve">
<style type="text/css">
	.st0{fill:#C80C0F;}
</style>
<g>
	<path class="st0" d="M288,128.23c-0.96,6.28-1.4,12.63-2.64,18.88c-7.33,37.05-26.27,66.18-58.92,85.75
		c-15.47,9.27-32.52,14.21-50.25,17.05c-14.41,2.31-28.92,2.76-43.43,2.06c-26.35-1.27-51.72-6.66-74.32-21.02
		c-29.88-18.98-47.72-46.41-55.21-80.81c-1.58-7.24-2.21-14.6-3.23-21.91c0-5.62,0-11.25,0-16.87c1.97-2.77,4.61-3.63,8.01-3.61
		c8.91,0.06,17.79,0.39,26.61,1.6c2.2,0.3,2.61-0.86,2.85-2.46c1.7-11.35,4.82-22.32,9-32.99c3.01-7.69,6.5-15.15,10.64-22.29
		c2.1-3.62,4.73-4.6,8.78-3.22c14.44,4.91,28.1,11.44,40.72,20.04c2.23,1.52,3.26,1.24,4.81-0.92c7.8-10.85,16.99-20.44,27.14-29.13
		c4.2-3.59,6.82-3.55,11.13,0.18c10.02,8.67,19.24,18.11,26.89,28.97c1.5,2.13,2.58,2.44,4.84,0.91
		c12.47-8.47,25.93-14.99,40.18-19.86c4.85-1.66,7.22-0.71,9.73,3.76c9.51,16.99,16.13,35,19.16,54.28
		c0.33,2.11,0.98,2.98,3.46,2.65c9.29-1.23,18.65-1.58,28.02-1.47c2.8,0.03,4.42,1.71,6.04,3.56C288,116.98,288,122.61,288,128.23z
		 M191.76,148.69c-0.03-9.15-1.1-18.16-3.26-27.01c-6.76-27.65-21.75-50.3-42.32-69.57c-2.1-1.97-3.38-0.88-4.93,0.58
		c-11.67,11-21.75,23.26-29.42,37.39c-13.19,24.31-18.72,50.06-13.78,77.55c5.23,29.09,20.71,51.8,44.12,69.41
		c1.36,1.02,2.32,1.08,3.67,0.01c3.09-2.43,6.19-4.85,9.11-7.49C178.85,207.88,191.16,180.95,191.76,148.69z M163.57,238.79
		c7.69-0.74,14.63-1.77,21.48-3.33c23.02-5.24,43.24-15.4,59.47-33c20.57-22.31,29.38-49.11,31.01-78.82c0.14-2.48-0.7-3.3-3.18-3.2
		c-9.27,0.36-18.49,1.22-27.61,2.91c-13.64,2.54-26.66,6.81-38.62,13.98c-1.19,0.71-2.3,1.25-2.13,3.16
		c0.54,5.88,0.35,11.76-0.12,17.67c-1.69,21.02-8.48,40.19-20.26,57.64C177.97,224.12,171.35,231.6,163.57,238.79z M123,238.23
		c-0.07-0.41-0.03-0.64-0.13-0.75c-0.83-0.89-1.68-1.76-2.53-2.63c-25.39-25.42-37.7-56.08-36.44-92c0.13-3.56-1-5.09-3.8-6.64
		c-20.2-11.21-42.16-14.98-64.87-15.77c-2.11-0.07-2.84,0.74-2.73,2.8c0.43,7.86,1.31,15.67,2.86,23.39
		c5.35,26.59,18.16,48.8,39.1,66.13c16.79,13.89,36.55,20.98,57.79,24.44C115.78,237.78,119.31,238.73,123,238.23z M49.6,109.86
		c-0.16,2.07,1.38,2.21,2.76,2.53c10.91,2.55,21.43,6.19,31.29,11.55c2.08,1.13,2.46,0.37,2.84-1.48
		c2.81-13.8,7.87-26.77,14.71-39.04c1.12-2,0.89-3.01-1.01-4.28c-9.85-6.61-20.34-11.96-31.33-16.39c-2.45-0.99-3.52-0.31-4.57,1.84
		c-5.21,10.64-9.45,21.64-12.23,33.17C51.07,101.75,50.41,105.82,49.6,109.86z M238.4,109.81c-0.76-3.76-1.42-7.55-2.28-11.29
		c-2.76-12.03-7.21-23.44-12.7-34.46c-0.67-1.34-1.36-2.4-3.23-1.67c-11.68,4.51-22.73,10.18-33.07,17.25
		c-1.27,0.87-1.41,1.72-0.67,3.05c7.08,12.68,12.34,26.06,15.2,40.34c0.35,1.73,1.06,1.79,2.48,1.01c2.47-1.34,5.01-2.56,7.57-3.7
		c7.72-3.45,15.74-6.03,23.97-7.95C237.05,112.06,238.58,111.88,238.4,109.81z"/>
</g>
</svg>
