<?xml version="1.0" encoding="utf-8"?>
<!-- Generator: Adobe Illustrator 25.0.0, SVG Export Plug-In . SVG Version: 6.00 Build 0)  -->
<svg version="1.1" id="Layer_1" xmlns="http://www.w3.org/2000/svg" xmlns:xlink="http://www.w3.org/1999/xlink" x="0px" y="0px"
	 viewBox="0 0 288 288" style="enable-background:new 0 0 288 288;" xml:space="preserve">
<style type="text/css">
	.st0{fill:#C80C0F;}
</style>
<g>
	<path class="st0" d="M75.89,288c-4.88,0-5.99-3.24-6.4-5.69c-2.55-15.59-5.2-31.44-7.75-46.76c-2.28-13.68-4.56-27.36-6.81-41.04
		c-0.13-0.82-0.29-1.04-0.31-1.07c0,0.02-0.22-0.09-0.92-0.09c-0.03,0-0.06,0-0.1,0c-4.08,0.05-8.22,0.05-12.23,0.04
		c-4.15-0.01-8.45-0.02-12.66,0.04c-1.52,0.01-3.42-0.15-4.58-1.67c-1.16-1.52-0.83-3.42-0.4-4.9c4.73-16.45,9.43-32.9,14.13-49.35
		c4.27-14.94,8.54-29.88,12.83-44.82c2.81-9.79,9.71-15.02,19.95-15.13c4.05-0.03,8.16-0.02,12.12-0.01
		c2.01,0.01,4.03,0.01,6.04,0.01l5.36-0.01c4.16-0.01,8.32-0.01,12.48,0.01c9.85,0.07,17.05,5.52,19.75,14.97
		c8.83,30.9,17.65,61.81,26.49,92.71l0.15,0.54c0.1,0.38,0.2,0.74,0.31,1.04c0.28,0.73,1.12,2.95-0.16,4.78
		c-1.3,1.86-3.79,1.83-4.62,1.82c-3.57-0.04-7.2-0.03-10.72-0.02c-4.55,0.01-9.25,0.02-13.89-0.08c-1.49-0.03-1.58-0.03-1.86,1.65
		c-2.26,13.78-4.56,27.55-6.85,41.32c-2.52,15.13-5.13,30.78-7.65,46.18c-0.82,5-4.25,5.55-6.73,5.51
		c-9.26-0.1-17.38-0.1-24.83,0.01C76,288,75.94,288,75.89,288z M53.68,188.43c3.57,0,5.51,1.68,6.1,5.27
		c2.25,13.68,4.53,27.36,6.81,41.03c2.56,15.33,5.2,31.17,7.75,46.77c0.26,1.6,0.29,1.59,1.64,1.58c7.49-0.11,15.65-0.11,24.95-0.01
		c1.6,0.02,1.6-0.01,1.82-1.39c2.52-15.4,5.13-31.05,7.65-46.19c2.29-13.77,4.59-27.53,6.85-41.3c0.66-4.02,2.81-5.85,6.81-5.76
		c4.58,0.1,9.26,0.09,13.77,0.07c3.53-0.01,7.18-0.02,10.79,0.02c0.03,0,0.07,0,0.1,0c-0.19-0.51-0.32-1.01-0.44-1.45l-0.13-0.46
		c-8.84-30.9-17.66-61.8-26.49-92.71c-2.12-7.41-7.33-11.36-15.06-11.41c-4.14-0.03-8.29-0.02-12.44-0.01l-5.37,0.01
		c-2.02,0-4.03-0.01-6.05-0.01c-3.96-0.01-8.05-0.02-12.06,0.01c-8.06,0.09-13.06,3.87-15.27,11.57
		c-4.29,14.93-8.56,29.87-12.83,44.81c-4.7,16.46-9.4,32.91-14.13,49.36c-0.03,0.11-0.06,0.21-0.08,0.29c0.08,0,0.17,0,0.27,0
		c4.25-0.06,8.57-0.05,12.74-0.04c3.99,0.01,8.11,0.02,12.15-0.04C53.58,188.43,53.63,188.43,53.68,188.43z"/>
</g>
<g>
	<path class="st0" d="M201.27,287.97c-3.31,0-5.19-1.62-5.75-4.96c-2.51-15.23-5.05-30.46-7.59-45.68
		c-2.34-14.03-4.68-28.06-7-42.09c-0.4-2.42-1.14-3.95-2.56-5.28c-2.25-2.11-4.44-4.32-6.56-6.46c-1.57-1.59-3.2-3.23-4.82-4.8
		c-1.81-1.75-2.68-3.84-2.68-6.38c0.02-9.86,0.01-19.72,0.01-29.58c-0.01-14.88-0.01-30.26,0.05-45.39
		c0.04-11.2,8.57-19.68,19.83-19.74c22.11-0.11,41.81-0.11,60.23,0c12.13,0.07,20.04,8.32,20.15,21.02
		c0.08,8.63,0.07,17.42,0.05,25.91c-0.01,3.45-0.01,6.9-0.01,10.35c0,3.18,0,6.35-0.01,9.53c-0.01,8.76-0.02,17.81,0.05,26.7
		c0.02,3.31-1.04,5.87-3.34,8.04c-2.25,2.13-4.49,4.38-6.65,6.57c-1.62,1.63-3.24,3.26-4.88,4.87c-0.88,0.85-1.37,1.83-1.59,3.19
		l-4.15,24.99c-3.55,21.33-7.09,42.66-10.6,64c-0.58,3.51-2.52,5.21-5.92,5.21c-0.03,0-0.06,0-0.09,0c-8.65-0.07-17.42-0.07-26.07,0
		C201.33,287.97,201.3,287.97,201.27,287.97z M200.58,283c0.1,0.02,0.29,0.06,0.74,0.06c8.68-0.07,17.48-0.07,26.15,0
		c0.59,0,0.82-0.08,0.85-0.1c0-0.01,0.15-0.23,0.28-1c3.51-21.34,7.05-42.67,10.6-64l4.15-24.99c0.4-2.39,1.38-4.32,3.01-5.9
		c1.62-1.58,3.22-3.19,4.82-4.8c2.19-2.21,4.46-4.49,6.77-6.68c1.31-1.23,1.81-2.47,1.8-4.43c-0.07-8.92-0.06-17.98-0.05-26.75
		c0-3.17,0.01-6.35,0.01-9.52c0-3.45,0.01-6.91,0.01-10.36c0.02-8.48,0.03-17.25-0.05-25.86c-0.09-9.91-5.93-16.1-15.26-16.15
		c-18.4-0.11-38.09-0.11-60.18,0c-8.63,0.04-14.91,6.28-14.94,14.84c-0.07,15.12-0.06,30.5-0.05,45.37c0,9.86,0.01,19.73-0.01,29.59
		c0,1.24,0.32,2.01,1.19,2.85c1.66,1.6,3.3,3.26,4.89,4.87c2.09,2.11,4.25,4.29,6.44,6.34c2.23,2.09,3.47,4.58,4.05,8.07
		c2.31,14.03,4.65,28.05,7,42.08c2.54,15.23,5.08,30.46,7.59,45.69C200.45,282.68,200.53,282.9,200.58,283z"/>
</g>
<g>
	<path class="st0" d="M88.15,67.42c-18.58,0-33.77-14.98-33.89-33.44c-0.06-9.05,3.41-17.57,9.77-23.97c6.38-6.43,14.9-9.98,24-10
		c0.03,0,0.05,0,0.08,0c9.15,0,17.73,3.56,24.17,10.02c6.36,6.38,9.83,14.82,9.78,23.76c-0.12,18.5-15.29,33.59-33.82,33.64h0
		C88.22,67.42,88.19,67.42,88.15,67.42z M88.11,4.91c-0.02,0-0.04,0-0.07,0c-7.79,0.02-15.08,3.05-20.52,8.55
		c-5.43,5.47-8.39,12.75-8.34,20.48c0.1,15.77,13.09,28.56,28.97,28.56c0.03,0,0.06,0,0.08,0h0c16.11-0.05,28.82-12.68,28.92-28.76
		c0.04-7.62-2.92-14.82-8.35-20.26C103.3,7.95,95.95,4.91,88.11,4.91z"/>
</g>
<g>
	<path class="st0" d="M213.44,67.41c-0.1,0-0.19,0-0.29,0c-8.88-0.07-17.2-3.69-23.42-10.21c-6.2-6.5-9.57-15.1-9.5-24.21
		C180.38,14.75,195.67,0,214.36,0c0.07,0,0.15,0,0.22,0c18.45,0.13,33.36,15.3,33.23,33.81v0c-0.07,9.27-3.65,17.81-10.1,24.05
		C231.35,64.02,222.74,67.41,213.44,67.41z M214.36,4.91c-16,0-29.09,12.57-29.21,28.11c-0.06,7.83,2.83,15.21,8.14,20.78
		c5.29,5.55,12.36,8.63,19.9,8.69c0.08,0,0.17,0,0.25,0c8.01,0,15.41-2.9,20.85-8.17c5.49-5.32,8.55-12.62,8.6-20.55
		c0.11-15.8-12.61-28.75-28.35-28.86C214.49,4.91,214.42,4.91,214.36,4.91z"/>
</g>
<g>
	<g>
		<rect x="86.14" y="78.92" class="st0" width="3" height="10"/>
	</g>
	<g>
		<path class="st0" d="M89.14,256.97h-3v-21.01h3V256.97z M89.14,214.95h-3v-21.01h3V214.95z M89.14,172.94h-3v-21.01h3V172.94z
			 M89.14,130.93h-3v-21.01h3V130.93z"/>
	</g>
	<g>
		<rect x="86.14" y="277.97" class="st0" width="3" height="10"/>
	</g>
</g>
<g>
	<g>
		<rect x="214.21" y="78.92" class="st0" width="3" height="10"/>
	</g>
	<g>
		<path class="st0" d="M217.21,256.97h-3v-21.01h3V256.97z M217.21,214.95h-3v-21.01h3V214.95z M217.21,172.94h-3v-21.01h3V172.94z
			 M217.21,130.93h-3v-21.01h3V130.93z"/>
	</g>
	<g>
		<rect x="214.21" y="277.97" class="st0" width="3" height="10"/>
	</g>
</g>
</svg>
