<?xml version="1.0" encoding="utf-8"?>
<!-- Generator: Adobe Illustrator 25.0.0, SVG Export Plug-In . SVG Version: 6.00 Build 0)  -->
<svg version="1.1" id="Layer_1" xmlns="http://www.w3.org/2000/svg" xmlns:xlink="http://www.w3.org/1999/xlink" x="0px" y="0px"
	 viewBox="0 0 288 288" style="enable-background:new 0 0 288 288;" xml:space="preserve">
<style type="text/css">
	.st0{fill:#C80C0F;}
</style>
<g>
	<path class="st0" d="M228.56,288h-112.7l-0.8-0.46c-4.01-2.33-5.36-6.05-6.09-9.04c-2.3-9.46-4.71-19.07-7.05-28.37l-1.22-4.87
		c-1.07-4.24-2.59-5.43-7.1-5.51c-1.89-0.04-3.83,0-5.71,0.03c-4.25,0.08-8.65,0.16-13.1-0.53c-10.67-1.66-19.63-10.96-20.84-21.64
		c-1.09-9.53-2.14-19.22-3.16-28.59l-0.77-7.1c-0.33-2.98-0.33-2.98-3.3-3.74c-0.57-0.14-1.14-0.29-1.71-0.43
		c-1.38-0.34-2.8-0.7-4.22-1.1c-6.11-1.7-11.03-6.3-13.16-12.3c-2.16-6.09-1.26-12.6,2.48-17.86c5.08-7.17,9.76-14.74,13.92-22.48
		c2.94-5.47,4.41-11.31,4.5-17.88c0.38-25.38,8.35-47.85,23.7-66.77c18-22.18,41.65-35.29,70.28-38.95c0.27-0.03,0.6-0.11,0.96-0.2
		c0.2-0.05,0.4-0.1,0.61-0.14L144.43,0l21.74,0.04c8.45,1.27,18.34,3.11,27.58,7.11c37.48,16.19,59.79,44.33,66.33,83.64
		c3.5,21.02,0.45,42.49-9.06,63.81c-9.72,21.77-15.5,42.95-17.69,64.77c-1.71,17-1.18,34.07,1.56,50.73
		c0.24,1.5,0.41,2.98,0.58,4.41l0.14,1.18c0.77,6.39-0.53,8.84-6.3,11.92L228.56,288z M117.83,281.17h109.02
		c2.38-1.3,2.35-1.57,1.98-4.68l-0.14-1.21c-0.16-1.42-0.32-2.76-0.53-4.09c-2.84-17.25-3.39-34.92-1.62-52.51
		c2.26-22.55,8.23-44.43,18.25-66.87c8.96-20.07,11.83-40.23,8.56-59.9c-6.13-36.87-27.09-63.27-62.3-78.48
		c-8.41-3.64-17.28-5.32-25.63-6.58l-20.36,0.03c-0.5,0.12-1.06,0.25-1.69,0.33c-26.82,3.43-48.97,15.7-65.83,36.48
		c-14.35,17.7-21.81,38.75-22.17,62.57c-0.11,7.69-1.85,14.56-5.32,21.01c-4.29,7.99-9.13,15.8-14.37,23.2
		c-2.43,3.42-3.02,7.66-1.61,11.62c1.41,3.96,4.53,6.88,8.56,8.01c1.32,0.37,2.63,0.7,4.02,1.05c0.58,0.14,1.16,0.29,1.74,0.44
		c5.87,1.5,7.76,3.65,8.41,9.62l0.77,7.11c1.02,9.36,2.07,19.04,3.16,28.55c0.88,7.72,7.37,14.46,15.1,15.66
		c3.87,0.6,7.79,0.53,11.93,0.45c1.94-0.04,3.96-0.07,5.96-0.03c7.58,0.14,11.78,3.43,13.6,10.68l1.22,4.87
		c2.34,9.31,4.76,18.93,7.06,28.42C116.14,279.03,116.79,280.31,117.83,281.17z"/>
</g>
<g>
	<path class="st0" d="M225.28,98.56c-0.69-1.72-0.89-3.31-0.62-5.16c1.8-12.58-4.49-25.65-15.42-32.06
		c-1.39-0.81-2.19-1.93-2.99-3.22c-5.47-8.77-13.32-13.49-23.73-13.63c-1.6-0.02-2.85-0.38-4.17-1.21
		c-7.9-4.91-16.2-6.03-24.96-2.49c-1.05,0.42-2.05,0.73-3.25,0.35c-11.14-3.54-20.41-0.15-28.39,7.82
		c-0.86,0.86-1.67,1.75-2.98,1.99c-10.97,2.01-17.9,8.78-21.99,18.83c-0.47,1.15-1.04,2.15-2.1,2.89
		c-13.33,9.31-17.38,28.76-9.07,43.83c7.09,12.87,22.25,18.88,34.9,12.48c1.25-0.63,2.29-0.41,3.46,0.1
		c6.49,2.82,13.07,2.99,19.68,0.43c0.99-0.39,1.88-0.56,2.94-0.02c8.92,4.56,15.47,16.78,14.25,26.87
		c-0.9,7.43-1.88,14.86-2.85,22.28c-0.66,5,2,8.17,7.04,8.25c3.84,0.06,7.69,0.01,11.53,0.02c1.87,0,3.75,0,5.62,0
		s3.75,0.02,5.62-0.01c4.51-0.07,6.52-1.98,7.31-6.46c1.89-10.82,5.08-20.9,14.71-27.74c6.37-4.52,10-11.03,11.69-18.63
		c0.35-1.56,0.8-3.04,1.61-4.46C228.85,119.62,229.57,109.24,225.28,98.56z M211.81,123.69c-1.03,1.71-1.75,3.45-2.07,5.46
		c-0.91,5.69-3.65,10.44-8.22,13.96c-8.92,6.86-14.54,15.83-16.97,26.73c-0.7,3.14-2.05,4.3-5.09,3.84
		c-0.73-0.11-1.5-0.02-2.25-0.02c-6.07-0.01-6.11-0.01-5.76-6.04c0.35-6.16,1.42-12.27,0.56-18.48
		c-1.58-11.43-6.51-20.82-16.21-27.42c-1.94-1.32-3.9-2.58-5.66-4.16c-3.15-2.83-6.09-3.12-9.76-0.9c-3.56,2.15-7.25,2.84-11.3,1.68
		c-1.68-0.48-2.46-1.22-2.3-3.16c0.25-3.11,0.69-5.74,3.94-7.42c2.51-1.3,3.18-5.08,2-7.52c-1.19-2.47-4.31-3.91-7.12-3.27
		c-3.15,0.73-5.65,2.42-7.52,5.06c-2.34,3.31-3.45,7.06-3.79,11.04c-0.51,5.94-3.63,8.12-9.39,6.11
		c-6.75-2.36-10.22-7.62-11.66-14.35c-2-9.34,2.7-19.38,10.24-22.61c2.35-1.01,3.07-3.41,3.78-5.67c1.41-4.51,3.78-8.33,7.76-11.05
		c1.83-1.25,3.4-1.41,5.34-0.02c3.39,2.43,6.2,4.99,6.41,9.62c0.12,2.79,2.49,4.65,5.32,4.91c3.15,0.29,5.67-1.24,6.69-4
		c0.9-2.44,0.34-4.82-0.32-7.17c-1.06-3.79-3.1-7.04-5.99-9.68c-1.52-1.38-1.13-2.24,0.25-3.29c3.97-3,8.49-4.1,12.96-2.02
		c4.28,1.99,7.76,2.25,11.66-0.79c2.57-2,5.91-2.13,9.18-1.38c2.33,0.53,3.13,1.39,1.89,3.87c-2.37,4.74-3.75,9.8-3.5,15.18
		c0.07,1.49,0.25,2.99,0.59,4.44c0.81,3.39,3.77,5.25,7.49,4.85c2.92-0.31,5.34-3.01,5.12-6.37c-0.31-4.73,0.67-9.09,2.52-13.38
		c0.75-1.75,1.79-2.48,3.66-2.23c5.29,0.69,9.04,3.7,11.31,8.27c1.63,3.29,3.79,5.41,7.13,7.04c5.62,2.74,8.31,7.88,9.38,13.9
		c0.35,1.95-0.48,2.63-2.47,2.65c-8.04,0.09-13.59,4.17-17.19,11.13c-1.78,3.45-0.79,7.02,2.28,8.79c3.14,1.81,6.34,0.77,8.55-2.77
		c2.76-4.42,3.98-5.01,7.51-3.99c2.46,0.71,3.65,2.25,4.12,4.73C215.99,113.55,214.75,118.78,211.81,123.69z"/>
	<path class="st0" d="M148.72,86.66c-2.98-0.54-6.26,2.01-7.01,4.92c-0.69,2.67,0.93,5.92,3.66,7.18c0.92,0.43,1.95,0.68,2.95,0.88
		c5.29,1.05,10.25,2.98,14.91,5.63c8.45,4.8,14.26,11.46,14.95,21.64c0.1,1.49,0.02,3,0.21,4.48c0.41,3.16,3.11,5.64,6.03,5.68
		c3.08,0.04,5.67-2.12,6.26-5.34c0.24-1.28,0.29-2.6,0.39-3.45c-0.3-7.92-2.07-14.93-6.53-21.04
		C175.68,95.08,163.08,89.26,148.72,86.66z"/>
</g>
</svg>
