<?xml version="1.0" encoding="utf-8"?>
<!-- Generator: Adobe Illustrator 25.0.0, SVG Export Plug-In . SVG Version: 6.00 Build 0)  -->
<svg version="1.1" id="Layer_1" xmlns="http://www.w3.org/2000/svg" xmlns:xlink="http://www.w3.org/1999/xlink" x="0px" y="0px"
	 viewBox="0 0 288 288" style="enable-background:new 0 0 288 288;" xml:space="preserve">
<style type="text/css">
	.st0{fill:#C80C0F;}
</style>
<g>
	<path class="st0" d="M284.07,287.98c-0.53,0-1.02-0.07-1.44-0.13l-0.31-0.05c-1.21-0.16-2.49-0.13-3.84-0.1
		c-0.93,0.02-1.89,0.05-2.87,0.01c-3.76-0.16-7.31-1.27-10.74-2.37c-4.18-0.22-7.71-0.28-11.08-0.19c-0.9,0.03-2.15,0.08-3.35-0.5
		c-1.67-0.78-2.79-2.56-2.99-4.73c-0.1-1.07,0.01-2.06,0.12-3.02c0.04-0.37,0.08-0.74,0.11-1.1c0.23-3.27-0.92-6.64-2.01-9.54
		c-0.93-2.48-1.93-4.91-2.98-7.25c-1.49,0.4-2.95,0.74-4.36,1.08l-0.1,0.02c-0.68,0.16-1.7,0.39-2.78,0.01
		c-0.88-0.3-1.48-0.92-1.85-1.36c-1.33-1.56-1.97-3.37-2.6-5.12c-0.27-0.77-0.53-1.5-0.84-2.18c-0.19-0.43-0.41-0.84-0.63-1.26
		c-0.33-0.64-0.68-1.31-0.97-2.04c-0.24-0.62-0.43-1.22-0.6-1.8c-0.14-0.47-0.28-0.94-0.46-1.39c-0.74-1.91-2.13-3.61-3.61-5.41
		c-1.73-2.1-3.51-4.27-4.39-7c-1.47-0.71-2.91-1.37-4.32-2.01c-2.03-0.93-3.94-1.8-5.86-2.78c-9.3-4.73-17.64-11.25-24.78-19.38
		c-1.93-2.2-3.76-4.51-5.53-6.75c-2.22-2.81-4.52-5.72-6.98-8.35c-1.29-1.39-2.69-2.76-4.04-4.1c-3.51-3.46-7.13-7.04-9.68-11.46
		c-4.37-1.01-8.33-1.85-12.37-2.62c-6.11,3.44-12.36,7.42-19.59,12.46c-13.81,14.96-28.12,30.02-41.97,44.59
		c-2.17,2.27-4.4,4.61-6.22,7.22c-1.61,2.31-2.93,4.87-4.21,7.34l-6.04,11.71c-0.97,1.76-1.64,1.52-9.9-1.38
		c-2.36-0.83-4.71-1.68-6.1-2.18c-3.36,3.76-6.3,7.2-9.17,10.76c-1.55,1.92-2.77,3.58-3.64,5.39c-0.63,1.31-1.29,3.28-0.87,5.23
		c0.06,0.28,0.14,0.57,0.22,0.86c0.43,1.61,1.16,4.31-1.22,6.23c-0.68,0.54-1.49,0.89-2.41,1.06c-3,0.53-6.04,0.63-9.06,0.32
		c-0.29-0.03-0.58-0.07-0.87-0.1c-1.27-0.15-2.48-0.3-3.52-0.06c-0.78,0.17-1.59,0.58-2.44,1c-0.9,0.45-1.82,0.92-2.89,1.22
		c-2.65,0.75-5.18,0.23-7.63-0.27c-1.64-0.33-3.18-0.65-4.64-0.56c-0.38,0.02-0.82,0.04-1.32-0.09c-1.56-0.42-2.54-2.1-2.21-3.76
		c0.17-0.94,0.72-1.8,1.68-2.59c0.72-0.61,1.57-1.09,2.5-1.43c0.38-0.13,0.76-0.24,1.14-0.34c0.35-0.09,0.69-0.18,0.96-0.29
		c0.52-0.21,1.05-0.58,1.61-0.97c0.56-0.39,1.14-0.79,1.82-1.13c0.7-0.35,1.38-0.57,2.04-0.78c0.59-0.19,1.14-0.37,1.59-0.61
		c0.55-0.29,1.09-0.76,1.67-1.25c0.57-0.49,1.17-0.99,1.87-1.44c0.67-0.42,1.35-0.73,2-1.02c0.55-0.25,1.08-0.49,1.52-0.76
		c1.09-0.69,2-1.84,2.89-2.95l0.14-0.18c1.09-1.39,2.12-2.7,3.04-4.09c1.49-2.27,2.7-4.84,3.87-7.33c0.71-1.5,1.41-3,2.11-4.5
		c0.43-0.92,0.86-1.84,1.29-2.76c-0.31-0.16-0.66-0.35-1.05-0.57c-0.89-0.48-1.28-1.56-0.89-2.49c1.05-2.53,2.55-4.76,4.01-6.91
		c0.35-0.51,0.69-1.02,1.03-1.54c3.26-4.95,5.86-10.15,7.98-14.57c1.36-2.88,2.67-5.74,3.87-8.49l0.14-0.32
		c0.94-2.15,1.91-4.38,3.46-6.35c0.61-0.77,1.28-1.45,1.92-2.11c0.81-0.84,1.58-1.62,2.14-2.49c0.57-0.88,0.98-1.92,1.41-3.03
		c0.51-1.29,1.04-2.63,1.88-3.89c0.5-0.73,1.06-1.38,1.6-2c0.94-1.08,1.76-2.02,1.92-3.03l0.03-0.24c0.07-0.57,0.17-1.44,0.8-2.22
		c0.6-0.74,1.4-1.05,2.03-1.24c1.02-0.32,2.08-0.56,3.16-0.72c0.44-1.34,1.11-2.5,1.97-3.41c0.62-0.66,1.33-1.17,1.96-1.62
		c0.3-0.21,0.59-0.42,0.88-0.65c1.33-1.08,2.36-2.58,3.44-4.17c0.64-0.94,1.31-1.91,2.06-2.84c0.93-1.13,1.95-2.12,2.93-3.09
		c0.31-0.3,0.61-0.6,0.92-0.9c1.99-2,3.91-4.21,5.76-6.36c3.71-4.29,7.53-8.71,12.39-11.94c0.03-0.49,0.15-0.89,0.3-1.19
		c0.34-0.71,0.96-1.27,1.71-1.55c0.06-0.49,0.24-0.96,0.52-1.38c-0.2-0.23-0.41-0.48-0.64-0.75c-0.34-0.41-0.5-0.92-0.46-1.42
		c-0.44,0.3-0.87,0.6-1.3,0.89c-2.7,1.85-5.5,3.77-8.31,5.57c-0.35,0.23-0.76,0.33-1.18,0.31c-1.08-0.06-1.08-0.06-5.59-6.06
		c-0.42-0.55-0.5-1.25-0.28-1.86c-1.46,0.65-2.93,1.08-4.38,1.28c-0.12,0.02-0.27,0.02-0.36,0.03c-1.46,0-1.68-0.66-2.74-3.81
		c-0.42-1.24-0.82-2.47-0.82-2.47c-0.26-0.79,0.01-1.67,0.67-2.18c1.96-1.51,4.34-1.8,6.44-2.05l0.59-0.07
		c2.53-0.31,5.13-0.89,7.63-1.44c1.83-0.4,3.46-0.77,5.01-1.31c1.27-0.45,2.5-1.03,3.8-1.65l0.22-0.1
		c7.55-3.55,16.33-7.34,25.49-7.63c1.55-1.89,3.47-2.96,5.18-3.73c-0.04-0.89,0.13-1.9,0.9-2.74c0.18-0.19,0.35-0.33,0.52-0.47
		c0.07-0.16,0.2-0.48,0.39-1.08c-1.67-2.39-2.94-5.31-3.54-7.23c-0.62-1.97-0.65-4.05-0.33-5.84c-0.85,0.71-1.74,1.5-2.53,2.45
		c-2.5,3-4.81,3.73-7.79,4.44c-2.46,0.58-5.24,2.03-7.64,3.36c-3.16,1.76-5.28,1.81-8.1,0.17c-0.93-0.54-2.09-0.99-3.22-1.42
		c-1.25-0.48-2.42-0.93-3.35-1.53c-1.59-1.02-2.23-1.89-2.91-2.82c-0.12-0.16-0.24-0.32-0.37-0.5c-0.28-0.37-0.58-0.85-0.95-1.46
		c-0.91-1.47-2.14-3.49-3.85-4.94c-3.16-2.69-3.71-5.51-3.84-8.17c-0.1-2.04,0.05-5.64,0.09-6.74c-0.21-0.71-0.75-2.55-1.27-3.87
		c-0.46-1.15-1.71-4.57-2.71-7.31c-0.55-1.52-1.03-2.81-1.23-3.36c-0.25-0.66-0.45-1.47-0.58-2.41c-0.2-1.35-0.48-2.53-0.88-3.58
		c-2.26-6.02-2.95-7.7-3.16-8.17c-1.25-2.8-2.04-4.75-1.56-6.26c0.43-1.41,1.97-2.34,5.16-3.99l0.72-0.38
		c4.22-2.23,6.02-2.13,7.02-1.87c1.08,0.29,1.79,0.92,2.25,1.59c0.38,0.05,0.8,0.14,1.25,0.3c1.13,0.41,1.74,1.35,1.97,2.4
		c0.28,0.15,0.56,0.35,0.82,0.61c0.42,0.44,0.68,0.97,0.84,1.48c0.61,0.29,0.99,0.69,1.21,0.98c0.85,1.15,0.93,2.76,0.22,4.91
		c-0.49,1.48-1.45,2.26-1.97,2.67c-0.07,0.06-0.14,0.1-0.19,0.15c-0.03,0.03-0.05,0.05-0.08,0.08c0.45,2.18,0.95,5.9-0.2,8.1
		c-0.49,0.92-0.36,1.12,0.38,2.22c0.17,0.26,0.34,0.52,0.51,0.79c0.6,1.02,3.98,5.6,6.25,8.62c1.17,0.74,2.3,1.62,3.09,2.26
		c1.42-0.8,3.68-2.06,4.26-2.38c0.59-0.32,1.31-0.43,2.04-0.4c0.03-0.94,0.08-1.98,0.15-2.69c0.02-0.23,0.04-0.45,0.06-0.66
		c0.13-1.46,0.29-3.12,1.82-4.07c0.61-0.37,1.19-0.96,2.44-2.25c1.55-1.59,3.16-2.83,5.41-4.15c1.83-1.07,5.98-3.86,7.12-4.62
		c0.39-0.51,1.18-1.37,2.37-1.94c0.8-0.38,2.37-0.69,6.05-1.35c2.25-0.4,4.8-0.86,6.5-1.3c1.82-0.47,3.23-1.41,4.72-2.4
		c1.18-0.79,2.4-1.6,3.79-2.12c2.74-1.02,5.09-0.29,6.26,0.41c0.22,0.07,0.68,0.2,1.35,0.32c0.03-0.05,0.06-0.11,0.08-0.17
		c0.11-0.26,0.19-0.58,0.29-0.91c0.13-0.47,0.27-1,0.51-1.53c-0.42,0.1-0.81,0.17-1.17,0.23c-0.92,0.15-2.14,0.28-3.37-0.01
		c-1.49-0.32-2.73-1.23-3.39-2.47c-0.59-1.11-0.61-2.27-0.48-3.24c-0.28-0.23-0.53-0.54-0.75-0.9c-0.23-0.37-0.41-0.83-0.51-1.3
		c-0.1-0.51-0.09-0.99-0.02-1.43c-0.19-0.25-0.34-0.53-0.45-0.83c-0.33-0.98-0.06-1.84,0.08-2.3c0.07-0.23,0.13-0.46,0.19-0.68
		c-0.63-0.49-1.15-1.12-1.55-1.85c-0.16-0.29-0.39-0.77-0.41-1.39c-0.02-0.63,0.19-1.12,0.34-1.44c0.42-0.86,1.02-1.55,1.54-2.15
		c0.36-0.42,0.7-0.81,0.92-1.19c0.43-0.74,0.51-1.7,0.21-2.5c-0.03-0.09-0.08-0.19-0.12-0.29c-0.14-0.33-0.31-0.74-0.41-1.22
		c-0.24-1.14,0.04-2.2,0.22-2.9c0.64-2.44,1.38-4.99,2.78-7.25c-0.12-1.84,1.04-3.39,1.64-4.2l1.83-2.45
		c0.51-0.66,1.08-1.42,1.91-2.02c1.52-1.12,3.36-1.37,4.8-1.5c0.65-0.35,1.55-0.81,2.55-1.1c1.15-0.33,2.25-0.38,3.31-0.43
		c0.38-0.02,0.77-0.03,1.15-0.07c0.4-0.03,0.8-0.09,1.2-0.14c0.88-0.11,1.8-0.23,2.78-0.2c2.31,0.07,4.42,0.96,6.35,1.91
		c0.88,0.43,1.9,0.96,2.86,1.66c2.2,1.59,3.69,3.82,5.01,5.79c0.71,1.05,1.58,2.33,2.26,3.75c0.7,0.43,1.25,1.04,1.6,1.75
		c0.37,0.12,0.74,0.26,1.09,0.42c0.5,0.24,1.08,0.58,1.52,1.22c0.13,0.17,0.23,0.36,0.31,0.56c1.73,0.55,3.54,1.35,5.04,2.76
		c1.49,1.41,2.39,3.19,2.95,4.4c2.28,5.02,3.11,10.79,2.32,16.25c-0.08,0.56-0.18,1.11-0.27,1.67c-0.26,1.5-0.51,2.92-0.39,4.26
		c0.07,0.75,0.26,1.54,0.47,2.38c0.23,0.94,0.47,1.91,0.57,2.96c0.1,1.05,0.03,2.12-0.19,3.18c-0.28,1.6-1.27,4.03-2.1,5.88
		c-0.06,0.57-0.13,1.12-0.19,1.6c1.37,0.72,2.92,1.54,4.69,2.58c5.97,3.46,6.87,5.98,7.64,9.72c0.07,0.34,0.14,0.7,0.23,1.07
		c0.83,3.68,0.76,7.04-0.27,11.59c-0.59,2.63-1.61,4.18-2.46,5.06c0.18,1,0.29,2.42-0.03,3.91c-0.19,0.88-0.3,1.59-0.4,2.27
		c-0.15,0.95-0.28,1.84-0.6,2.95c-0.32,1.15-1.03,2.05-1.65,2.84c-0.53,0.67-1.03,1.3-1.08,1.84c-0.13,1.21,0.27,1.98,0.45,2.08
		c0.78,0.2,1.4,0.63,1.89,1.12c0,0,0,0,0,0c0.93-0.32,1.97-0.21,2.84,0.32c0.76,0.45,1.4,1.18,2.01,1.89
		c0.16,0.18,0.31,0.36,0.47,0.53c1.17,1.26,1.7,2.89,1.42,4.36c-0.15,0.79-0.59,1.42-1.12,1.9c0.2,1.2,0.44,2.84,0.45,3.69
		c0.01,1.28,0.03,2.86-1.87,4.15c-0.97,0.65-1.99,0.81-2.66,0.91c-0.15,0.02-0.29,0.04-0.42,0.07c-0.06,0.05-0.13,0.11-0.19,0.16
		c-0.43,0.36-1.09,0.91-2.35,1.24c-1.12,0.28-2.14,0.14-2.81-0.03c-0.64,0.14-1.64,0.27-2.69,0.06c-0.88-0.18-0.88-0.18-1.5,0.01
		c-0.45,0.14-0.89,0.18-1.28,0.17c-0.75,1.28-2.04,2.36-3.52,2.92c-0.01,1.05-0.15,2.46-0.61,3.97c0.5,1.68,1.59,5.97,0.78,9.24
		c2.34,2.21,2.91,4.9,3.34,6.94c0.23,1.09,0.47,2.22,0.88,2.48c2.35,1.54,3.19,3.74,3.36,5.32c6.21,5.31,11.84,11.22,17.3,16.94
		c1.17,1.23,2.38,2.5,3.52,3.84c2.06,2.43,4.23,4.9,6.43,7.35c0.87,0.97,1.83,1.91,2.74,2.82c1.69,1.67,3.45,3.4,4.85,5.46
		c1.3,1.91,2.09,4.09,2.79,6.02c2.32,6.4,4.72,13.01,6.69,19.75c0.45,1.55,0.88,3.1,1.31,4.66c1.19,4.29,2.41,8.71,4.08,12.85
		c0.42,0.16,0.79,0.37,1.11,0.65c0.81,0.71,1.23,1.81,1.11,2.87c0,0.09-0.03,0.23-0.06,0.38c0.25,0.56,0.5,1.09,0.77,1.62
		c0.35,0.68,0.89,1.75,0.72,3.04c-0.18,1.43-1.16,2.38-1.75,2.95c-0.34,0.32-0.68,0.65-1.01,0.97c1.53,4.95,3.58,9.7,5.73,14.53
		c0.58,1.31,1.61,2.46,3.06,3.43c0.66,0.43,1.35,0.83,2.09,1.25c0.93,0.53,1.89,1.07,2.82,1.73c0.48,0.35,0.94,0.71,1.39,1.07
		c0.4,0.32,0.81,0.65,1.22,0.95c0.86,0.62,1.79,1.14,2.51,1.52c0.79,0.41,1.85,0.95,2.95,1.35c0.39,0.14,0.76,0.27,1.14,0.4
		c0.85,0.29,1.73,0.58,2.6,1.02c1.34,0.68,2.37,1.57,3.05,2.61c0.46,0.17,0.88,0.45,1.22,0.81c0.65,0.69,0.98,1.64,0.86,2.53
		c-0.01,0.09-0.03,0.17-0.05,0.26c-0.35,1.34-1.56,2.35-3.08,2.58C284.58,287.96,284.32,287.98,284.07,287.98z M280.09,283.73
		c0.81,0,1.63,0.03,2.46,0.12c-0.3-0.44-0.81-0.85-1.49-1.19c-0.62-0.31-1.33-0.55-2.09-0.8c-0.42-0.14-0.84-0.28-1.25-0.44
		c-1.3-0.48-2.51-1.08-3.42-1.56c-0.84-0.45-1.94-1.06-2.99-1.82c-0.47-0.34-0.92-0.7-1.37-1.06c-0.41-0.32-0.81-0.65-1.23-0.95
		c-0.75-0.53-1.58-1-2.47-1.5c-0.76-0.43-1.55-0.88-2.32-1.39c-2.09-1.38-3.6-3.1-4.49-5.11c-2.37-5.33-4.63-10.57-6.26-16.17
		c-0.2-0.7,0-1.46,0.52-1.97l0.16-0.16c0.57-0.55,1.14-1.11,1.72-1.66c0.14-0.13,0.52-0.5,0.58-0.65c-0.02-0.08-0.24-0.52-0.35-0.73
		c-0.31-0.62-0.59-1.23-0.87-1.84c-0.01-0.01-0.03-0.08-0.04-0.09c-0.11-0.25-0.28-0.67-0.31-1.21c-0.01-0.2,0-0.37,0.02-0.53
		c-0.65-0.12-1.2-0.56-1.46-1.17c-1.97-4.64-3.32-9.53-4.63-14.25c-0.43-1.54-0.85-3.08-1.3-4.6c-1.94-6.62-4.32-13.18-6.62-19.52
		c-0.65-1.79-1.32-3.64-2.34-5.15c-1.18-1.74-2.72-3.26-4.35-4.87c-0.96-0.95-1.96-1.93-2.91-2.99c-2.23-2.48-4.41-4.98-6.5-7.43
		c-1.07-1.26-2.25-2.49-3.38-3.67c-5.58-5.85-11.35-11.9-17.66-17.22c-0.5-0.42-0.76-1.06-0.69-1.71c0.01-0.13,0.05-1.66-1.62-2.75
		c-1.77-1.16-2.18-3.1-2.58-4.97c-0.44-2.07-0.85-4.03-2.94-5.49c-0.27-0.19-0.49-0.45-0.64-0.74c-0.29-0.57-0.29-1.26,0.03-1.84
		c0.91-1.65,0.16-5.85-0.66-8.31c-0.14-0.42-0.14-0.88,0.01-1.3c0.85-2.37,0.53-4.51,0.53-4.53c-0.09-0.55,0.07-1.13,0.42-1.56
		c0.36-0.43,0.88-0.7,1.44-0.73c1.35-0.06,2.42-1.31,2.41-1.78c-0.01-0.74,0.4-1.42,1.05-1.77c0.65-0.34,1.45-0.29,2.05,0.13
		c0.06,0.03,0.24,0.09,0.29,0.08c1.44-0.43,2.01-0.38,3.41-0.11c0.52,0.1,1.14-0.04,1.33-0.11c0.46-0.16,0.99-0.14,1.43,0.06
		c0.12,0.05,0.59,0.17,0.99,0.07c0.39-0.1,0.5-0.19,0.79-0.44c0.21-0.18,0.43-0.35,0.68-0.51c0.63-0.4,1.28-0.5,1.86-0.59
		c0.42-0.07,0.83-0.13,1.06-0.28c0.05-0.04,0.09-0.07,0.11-0.09c0.02-0.16,0.02-0.48,0.01-0.75c-0.01-0.71-0.37-2.97-0.62-4.35
		c-0.18-0.97,0.39-1.92,1.33-2.23c0,0,0.01,0,0.01,0c-0.05-0.19-0.18-0.47-0.42-0.73c-0.19-0.2-0.37-0.41-0.55-0.62
		c-0.17-0.2-0.41-0.47-0.62-0.7c-0.36,0.54-0.94,0.87-1.64,0.86c-0.82,0-1.56-0.52-1.84-1.29c-0.15-0.4-0.51-0.9-0.69-0.98
		c-2.3-0.6-3.68-3.2-3.34-6.3c0.17-1.67,1.14-2.89,1.91-3.87c0.43-0.55,0.84-1.07,0.95-1.46c0.25-0.88,0.36-1.59,0.5-2.49
		c0.11-0.71,0.23-1.5,0.44-2.5c0.34-1.58-0.19-3.19-0.19-3.2c-0.17-0.5-0.24-1.02,0.01-1.49c0.23-0.45,0.53-0.77,1.01-0.93
		c0.21-0.16,1.14-0.98,1.68-3.38c0.89-3.98,0.97-6.75,0.27-9.85c-0.09-0.4-0.17-0.78-0.25-1.15c-0.57-2.76-0.88-4.28-5.75-7.11
		c-1.87-1.09-3.49-1.94-4.92-2.7l-0.84-0.44c-0.73-0.39-1.14-1.19-1.03-2.01c0.1-0.72,0.25-1.88,0.39-3.18
		c0.02-0.21,0.08-0.42,0.17-0.61c0.22-0.48,0.42-0.95,0.61-1.39c-0.33-0.38-0.51-0.88-0.48-1.42c0.04-0.59,0.06-1.15,0.06-1.64
		c0.03-1.12-0.03-2.23-0.1-3.42c-0.1-1.84-0.21-3.75,0.01-5.69c0.07-0.63,0.44-1.17,0.96-1.48c0.08-1.01,0.26-1.99,0.42-2.96
		c0.09-0.52,0.18-1.03,0.26-1.55c0.68-4.72-0.03-9.71-2-14.05c-0.66-1.45-1.32-2.46-2.07-3.17c-0.85-0.8-1.99-1.4-3.74-1.93
		c0.03,0.02,0.06,0.04,0.09,0.06c0.58,0.4,0.91,1.07,0.86,1.77c-0.03,0.38,0.04,0.76,0.2,1.11c0.1,0.21,0.23,0.48,0.32,0.8
		c0.2,0.73,0.1,1.39,0.04,1.83l-0.38,2.65c-0.14,1.01-0.29,2.01-0.44,3.02l-0.02,0.15c-0.16,1.07-0.34,2.27-0.83,3.44
		c-0.43,1.04-1.04,1.9-1.62,2.73c-0.08,0.11-0.15,0.22-0.23,0.33c0.58,0.44,0.88,1.18,0.75,1.92c-0.34,1.87-0.67,3.8-0.85,5.75
		c0.85,0.2,1.48,0.94,1.51,1.83c0.09,2.09,0.2,3.83,0.69,5.45c0.26,0.85,0.63,1.7,1,2.52c0.11,0.24,0.21,0.49,0.32,0.73l0.18,0.41
		c0.09,0.18,0.2,0.45,0.28,0.7c0.28,0.85-0.04,1.78-0.79,2.27c-0.75,0.49-1.73,0.42-2.4-0.18l-0.58-0.52
		c-0.64-0.59-1.18-1.15-1.73-1.8c-0.15-0.17-0.26-0.37-0.34-0.57c-0.13-0.32-0.24-0.65-0.34-0.98c-0.41-0.13-0.79-0.39-1.05-0.76
		c-0.42-0.6-0.63-0.85-1.09-1.1c-0.51-0.29-0.87-0.79-0.98-1.37c-0.06-0.33-0.13-0.67-0.21-0.99c-0.05-0.19-0.09-0.3-0.11-0.37
		c-0.03-0.01-0.07-0.02-0.1-0.03c-0.92-0.31-1.84-0.5-2.77-0.58c-0.71-0.06-1.32-0.5-1.62-1.15c-1.41-3.11-1.88-6.48-1.41-10.01l0,0
		c0.06-0.49,0.18-1.39,0.78-2.19c0.88-1.19,2.21-1.45,3.1-1.63c0.2-0.04,0.4-0.08,0.59-0.13c0.71-0.21,1.43-0.87,1.9-1.76
		c0.54-1.03,0.77-2.26,0.95-3.44c0.44-2.92,0.5-5.45,0.17-7.74c-0.08-0.59,0.1-1.18,0.5-1.62c0.4-0.44,0.99-0.67,1.58-0.63
		c0.19,0.01,0.39,0.03,0.58,0.05c0.67,0.06,1.29,0.11,1.65-0.06c0.27-0.13,0.57-0.18,0.86-0.19c-0.52-0.16-0.95-0.53-1.19-1.03
		c-0.11-0.23-0.17-0.47-0.19-0.72c-0.16-0.06-0.33-0.12-0.5-0.17c-0.08-0.02-0.16-0.04-0.24-0.06c-0.13-0.03-0.28-0.06-0.44-0.11
		c-0.84-0.22-1.44-0.97-1.47-1.84c0,0,0,0,0,0c-0.01,0-0.1-0.09-0.22-0.13c-0.52-0.18-0.94-0.58-1.15-1.09
		c-0.57-1.33-1.44-2.63-2.22-3.77c-1.2-1.78-2.43-3.62-4.06-4.8c-0.71-0.52-1.51-0.93-2.27-1.31c-1.78-0.87-3.26-1.46-4.74-1.51
		c-0.66-0.02-1.39,0.07-2.15,0.17c-0.45,0.06-0.91,0.12-1.36,0.16c-0.43,0.04-0.87,0.06-1.31,0.08c-0.88,0.04-1.7,0.08-2.41,0.28
		c-0.61,0.18-1.25,0.51-1.81,0.81l-0.35,0.19c-0.23,0.12-0.48,0.19-0.73,0.21c-1.38,0.12-2.48,0.25-3.2,0.78
		c-0.38,0.28-0.73,0.74-1.11,1.24l-1.81,2.42c-0.88,1.17-0.89,1.53-0.86,1.63c0.2,0.6,0.11,1.25-0.25,1.77
		c-1.33,1.9-2.02,4.25-2.66,6.69c-0.09,0.34-0.22,0.86-0.17,1.1c0.02,0.11,0.1,0.31,0.19,0.51c0.06,0.14,0.11,0.27,0.17,0.41
		c0.71,1.91,0.53,4.09-0.49,5.86c-0.41,0.7-0.91,1.28-1.35,1.8c-0.27,0.31-0.53,0.61-0.73,0.9c0.18,0.21,0.42,0.4,0.75,0.53
		c0.86,0.34,1.37,1.23,1.23,2.14c-0.11,0.7-0.27,1.42-0.48,2.18c0.21,0.17,0.39,0.39,0.52,0.63c0.26,0.49,0.29,1.07,0.1,1.59
		c-0.06,0.17-0.19,0.51-0.22,0.68c0.23,0.1,0.5,0.23,0.79,0.44c0.66,0.49,0.95,1.33,0.73,2.12c-0.11,0.39-0.4,1.44-0.18,1.86
		c0.11,0.2,0.42,0.39,0.77,0.47c0.59,0.14,1.29,0.06,1.89-0.04c0.43-0.07,0.88-0.15,1.27-0.3c0.17-0.06,0.33-0.13,0.49-0.2
		c0.69-0.3,1.64-0.71,2.78-0.59c0.94,0.11,1.85,0.57,2.56,1.31c0.61,0.63,0.99,1.36,1.24,1.92c0.31,0.69,0.2,1.51-0.29,2.09
		c-0.49,0.58-1.27,0.83-2.01,0.63c-0.16-0.04-0.39,0.03-0.5,0.16c-0.19,0.22-0.32,0.7-0.46,1.22c-0.11,0.42-0.24,0.9-0.44,1.38
		c-0.4,0.98-1.05,1.8-1.86,2.38c-0.39,0.28-0.87,0.4-1.35,0.35c-2.11-0.23-3.35-0.71-3.48-0.76c-0.15-0.06-0.29-0.14-0.42-0.23
		c-0.01,0-1.14-0.73-2.85-0.09c-0.97,0.36-1.94,1.01-2.98,1.7c-1.62,1.08-3.45,2.3-5.93,2.94c-1.83,0.47-4.46,0.94-6.78,1.36
		c-1.91,0.34-4.53,0.82-5.07,1.04c-0.6,0.29-0.98,0.86-0.98,0.86c-0.14,0.22-0.35,0.43-0.56,0.58c-0.22,0.15-5.39,3.64-7.62,4.95
		c-1.92,1.12-3.29,2.17-4.57,3.49c-1.26,1.29-2.05,2.11-3.01,2.74c-0.07,0.26-0.11,0.79-0.15,1.19c-0.02,0.23-0.04,0.47-0.07,0.72
		c-0.15,1.42-0.18,4.58-0.18,4.61c0,0.62-0.3,1.21-0.8,1.58c-0.5,0.37-1.15,0.48-1.74,0.3c-0.56-0.17-1.31-0.3-1.64-0.28
		c-1.11,0.61-5.28,2.95-5.28,2.95c-0.74,0.41-1.65,0.31-2.28-0.25c-0.02-0.02-2.02-1.8-3.92-2.96c-0.21-0.13-0.4-0.3-0.55-0.5
		c-0.59-0.78-5.78-7.7-6.71-9.27c-0.13-0.21-0.26-0.42-0.4-0.62c-0.86-1.3-2.17-3.26-0.58-6.25c0.53-1.01,0.18-4.32-0.48-6.77
		c-0.15-0.56-0.05-1.16,0.29-1.64c0.3-0.43,0.76-0.73,1.28-0.82c0.11-0.1,0.25-0.22,0.41-0.35c0.37-0.3,0.57-0.47,0.69-0.82
		c0.17-0.51,0.24-0.86,0.26-1.1c-0.38-0.08-0.73-0.26-1-0.52c-0.38-0.37-0.64-0.88-0.64-1.41c0-0.05-0.01-0.11-0.01-0.18
		c-0.53,0.03-0.99-0.19-1.38-0.58c-0.46-0.46-0.55-1.13-0.43-1.77c-0.17-0.01-0.28,0-0.29,0c-0.59,0.12-1.16,0.08-1.63-0.29
		c-0.46-0.38-0.7-0.84-0.69-1.44c-0.26,0.01-1.54,0.21-4.16,1.59l-0.76,0.39c-0.83,0.43-2.43,1.26-3.12,1.78
		c0.2,0.86,0.96,2.56,1.31,3.35c0.4,0.9,1.5,3.73,3.25,8.4c0.5,1.33,0.85,2.77,1.09,4.41c0.09,0.63,0.21,1.18,0.36,1.55
		c0.22,0.57,0.7,1.88,1.26,3.42c0.99,2.72,2.23,6.1,2.67,7.2c0.73,1.86,1.46,4.46,1.49,4.57c0.06,0.2,0.08,0.41,0.07,0.62
		c0,0.04-0.21,4.51-0.11,6.7c0.09,1.92,0.33,3.54,2.45,5.35c2.18,1.86,3.67,4.28,4.65,5.88c0.29,0.47,0.56,0.91,0.73,1.13
		c0.15,0.2,0.29,0.38,0.42,0.56c0.57,0.77,0.88,1.2,1.85,1.82c0.59,0.38,1.59,0.76,2.64,1.17c1.21,0.47,2.59,1,3.79,1.7
		c1.41,0.82,2.05,0.99,4.19-0.21c2.63-1.47,5.72-3.06,8.65-3.76c2.44-0.58,3.9-1.01,5.67-3.12c1.26-1.51,2.66-2.66,3.78-3.57
		c0.84-0.69,1.64-1.34,2-1.85c1.01-1.46,2.04-3.35,2.05-3.37c0.27-0.5,0.74-0.86,1.29-0.98c0.55-0.13,1.13-0.01,1.59,0.32l1.27,0.92
		c0.8,0.58,1.05,1.65,0.59,2.52c0,0-1.61,3.04-2.53,4.84c-0.69,1.35-1.05,3.81-0.39,5.89c0.63,1.99,1.96,4.87,3.51,6.83
		c0.4,0.51,0.53,1.18,0.34,1.8c-0.81,2.66-1.17,3.28-1.72,3.73c-0.04,0.04-0.13,0.11-0.23,0.18c0.01,0.19,0.06,0.51,0.17,0.95
		c0.22,0.94-0.28,1.9-1.17,2.27c-2.31,0.95-4.19,1.83-5.47,3.75c-0.37,0.54-0.98,0.87-1.63,0.87c-8.72,0.03-17.04,3.61-24.82,7.27
		l-0.21,0.1c-0.19,0.09-0.38,0.18-0.58,0.27c0.16,0.2,0.28,0.42,0.35,0.67c0.26,0.87-0.1,1.8-0.89,2.26
		c-4.08,2.4-8.05,5.06-11.81,7.92c0.65,0.86,1.28,1.67,1.78,2.3c2.27-1.49,4.54-3.05,6.75-4.56c6.16-4.23,12.54-8.6,19.57-12
		c0.77-0.37,1.7-0.21,2.29,0.42c0.59,0.62,0.71,1.55,0.3,2.31c-1.23,2.25-2.98,5.09-5.62,7.06c-1.38,1.04-2.89,1.77-4.35,2.48
		c-0.37,0.18-0.74,0.36-1.1,0.54c-0.98,0.49-2.03,1.06-2.91,1.79c0.29,0.33,0.52,0.59,0.61,0.68c-0.18-0.18-0.49-0.37-0.88-0.45
		c0,0,0,0-0.01,0.01c0.21,0.05,0.41,0.12,0.6,0.24c0.59,0.36,0.96,0.99,0.96,1.67c0,0.78-0.46,1.48-1.16,1.8
		c-0.06,0.03-0.12,0.06-0.18,0.1c0.03,0.25,0.03,0.55-0.04,0.87c-0.23,0.92-0.91,1.63-1.82,1.93c-0.02,0-0.03,0.01-0.05,0.02
		c0.04,0.73-0.29,1.47-0.93,1.85c-4.88,2.94-8.62,7.27-12.58,11.86c-1.9,2.2-3.86,4.47-5.96,6.57c-0.32,0.32-0.63,0.63-0.95,0.94
		c-0.95,0.93-1.85,1.81-2.64,2.77c-0.65,0.79-1.23,1.65-1.85,2.56c-1.2,1.76-2.44,3.57-4.22,5.01c-0.34,0.28-0.7,0.54-1.07,0.8
		c-0.52,0.37-1.02,0.73-1.38,1.11c-0.81,0.86-1.18,2.05-1.35,2.9c-0.17,0.87-0.9,1.52-1.78,1.59c-1.26,0.1-2.51,0.34-3.71,0.71
		c-0.02,0.01-0.04,0.01-0.06,0.02c0,0.04-0.01,0.09-0.01,0.13c-0.01,0.13-0.03,0.25-0.05,0.37c-0.34,2.15-1.67,3.68-2.84,5.02
		c-0.48,0.56-0.94,1.08-1.3,1.62c-0.6,0.9-1.03,1.98-1.48,3.13c-0.49,1.23-0.99,2.51-1.77,3.72c-0.77,1.2-1.72,2.17-2.63,3.11
		c-0.6,0.62-1.17,1.2-1.65,1.81c-1.24,1.56-2.06,3.46-2.94,5.47l-0.14,0.33c-1.22,2.79-2.54,5.69-3.92,8.61
		c-2.05,4.28-4.83,9.86-8.24,15.04c-0.35,0.53-0.7,1.05-1.05,1.58c-1.05,1.56-2.05,3.05-2.87,4.6c0.36,0.19,0.65,0.33,0.79,0.4
		c0.38,0.13,0.72,0.38,0.96,0.72c0.41,0.58,0.48,1.34,0.18,1.98c-0.7,1.5-1.41,3-2.11,4.5c-0.7,1.5-1.41,3-2.11,4.51
		c-1.23,2.61-2.49,5.31-4.14,7.82c-1.01,1.54-2.14,2.97-3.24,4.36l-0.14,0.18c-1.04,1.31-2.22,2.79-3.88,3.84
		c-0.68,0.42-1.35,0.73-2,1.02c-0.55,0.25-1.08,0.49-1.52,0.76c-0.46,0.29-0.92,0.68-1.41,1.1c-0.68,0.58-1.45,1.24-2.38,1.73
		c-0.76,0.4-1.53,0.65-2.22,0.88c-0.55,0.18-1.06,0.35-1.5,0.56c-0.42,0.21-0.86,0.52-1.33,0.84c-0.68,0.47-1.45,1.01-2.37,1.38
		c-0.5,0.2-1,0.34-1.44,0.45c-0.28,0.07-0.55,0.14-0.82,0.24c-0.17,0.06-0.34,0.13-0.5,0.22c1.37,0.09,2.68,0.36,3.96,0.62
		c2.08,0.43,4.04,0.83,5.77,0.34c0.71-0.2,1.42-0.56,2.19-0.94c0.98-0.49,2.09-1.05,3.36-1.33c1.7-0.37,3.37-0.18,4.84,0
		c0.27,0.03,0.54,0.07,0.81,0.09c2.65,0.28,5.33,0.18,7.96-0.28c0.26-0.05,0.49-0.14,0.63-0.25c0.28-0.23,0.3-0.55-0.12-2.13
		c-0.09-0.35-0.19-0.71-0.26-1.05c-0.66-3.04,0.27-5.9,1.17-7.77c1.1-2.29,2.63-4.31,4.13-6.16c3.17-3.92,6.41-7.7,10.2-11.91
		c0.54-0.6,1.39-0.81,2.15-0.53c5.04,1.85,10.63,3.82,13.09,4.57l5.34-10.36c1.33-2.59,2.72-5.27,4.48-7.79
		c1.99-2.86,4.44-5.42,6.6-7.69c13.88-14.61,28.23-29.71,42.07-44.7c0.1-0.1,0.2-0.2,0.32-0.28c7.66-5.35,14.24-9.52,20.72-13.14
		c0.4-0.23,0.87-0.3,1.33-0.22c4.59,0.87,9.07,1.82,14.08,2.98c0.55,0.13,1.03,0.49,1.29,0.99c2.27,4.26,5.74,7.68,9.41,11.3
		c1.38,1.36,2.8,2.77,4.15,4.21c2.57,2.75,4.92,5.72,7.19,8.59c1.74,2.2,3.54,4.47,5.4,6.6c6.71,7.64,14.87,14.03,23.6,18.47
		c1.85,0.94,3.73,1.8,5.72,2.71c1.68,0.77,3.42,1.57,5.2,2.44c0.53,0.26,0.91,0.74,1.05,1.32c0.54,2.29,2.16,4.26,3.87,6.34
		c1.61,1.96,3.27,3.99,4.24,6.5c0.21,0.55,0.38,1.1,0.55,1.65c0.16,0.53,0.31,1.03,0.49,1.49c0.22,0.54,0.5,1.1,0.81,1.69
		c0.25,0.47,0.49,0.95,0.71,1.44c0.38,0.83,0.68,1.68,0.97,2.49c0.53,1.48,1.02,2.88,1.88,3.89c0.07,0.09,0.13,0.14,0.16,0.18
		c0.16-0.01,0.43-0.08,0.57-0.11l0.09-0.02c1.88-0.44,3.83-0.9,5.79-1.49c0.94-0.28,1.94,0.17,2.35,1.06
		c1.35,2.89,2.62,5.93,3.8,9.05c1.24,3.29,2.53,7.15,2.25,11.21c-0.03,0.42-0.08,0.84-0.12,1.26c-0.09,0.8-0.17,1.55-0.11,2.22
		c0.07,0.73,0.38,1.36,0.75,1.53c0.34,0.16,1.01,0.14,1.55,0.12c3.56-0.09,7.26-0.03,11.66,0.21c0.17,0.01,0.34,0.04,0.5,0.09
		c3.27,1.05,6.63,2.13,9.94,2.26c0.84,0.03,1.7,0.01,2.6-0.01C278.95,283.74,279.52,283.73,280.09,283.73z M255.04,243.1
		L255.04,243.1L255.04,243.1z M67.4,189.69L67.4,189.69L67.4,189.69z M82.45,138.4c0.21,0.62,0.41,1.21,0.58,1.71
		c1.73-0.48,3.51-1.39,5.32-2.7c-0.65,0.11-1.31,0.2-1.97,0.29l-0.61,0.07C84.57,137.91,83.41,138.05,82.45,138.4z M213.23,127.25
		L213.23,127.25L213.23,127.25z M214.32,122.85C214.32,122.85,214.32,122.85,214.32,122.85
		C214.32,122.85,214.32,122.85,214.32,122.85z M134.82,114.57c-0.01,0.01-0.02,0.02-0.03,0.03
		C134.8,114.58,134.81,114.57,134.82,114.57z M212.97,113.11C212.98,113.12,212.98,113.12,212.97,113.11
		C212.98,113.12,212.98,113.12,212.97,113.11z M110.47,80.54L110.47,80.54L110.47,80.54z M92.07,54.4c-0.03,0-0.06,0.01-0.08,0.01
		C92.02,54.4,92.05,54.4,92.07,54.4z M93.28,51.76L93.28,51.76L93.28,51.76z M186.32,51.47C186.32,51.47,186.32,51.47,186.32,51.47
		S186.32,51.47,186.32,51.47z M184.42,40c-0.02,0.07-0.03,0.18-0.05,0.3c0,0,0,0,0,0c-0.23,1.68-0.18,3.31,0.13,4.87
		c0.08-0.76,0.26-1.48,0.54-2.14c0.31-0.72,0.72-1.33,1.08-1.87c0.15-0.22,0.29-0.44,0.43-0.66c0.26-0.42,0.49-0.89,0.73-1.38
		c0-0.01,0.01-0.02,0.01-0.03c-0.41,0.23-0.84,0.41-1.27,0.53c-0.3,0.09-0.61,0.15-0.92,0.21C184.89,39.88,184.59,39.94,184.42,40z
		 M182.42,40.04L182.42,40.04L182.42,40.04z M184.45,39.88L184.45,39.88L184.45,39.88z M192.17,18.89L192.17,18.89L192.17,18.89z"/>
</g>
</svg>
